<?xml version="1.0" encoding="utf-8"?>
<!-- Generator: Adobe Illustrator 27.5.0, SVG Export Plug-In . SVG Version: 6.00 Build 0)  -->
<svg version="1.1" xmlns="http://www.w3.org/2000/svg" xmlns:xlink="http://www.w3.org/1999/xlink" x="0px" y="0px"
	 viewBox="0 0 500 500" style="enable-background:new 0 0 500 500;" xml:space="preserve">
<g id="BACKGROUND">
	<rect style="fill:#A9A3E2;" width="500" height="500"/>
	<path style="fill:#BEBCED;" d="M93.913,219.386c-8.617-30.722-3.502-64.489,11.209-92.803
		c14.711-28.314,38.505-51.343,65.789-67.887c35.969-21.81,79.147-32.802,120.777-26.775c41.63,6.027,81.137,30.03,102.391,66.331
		c21.253,36.3,22.259,84.581-0.656,119.856c19.667-7.458,43.569,4.24,53.17,22.954c9.601,18.715,2.953,44.152-14.576,55.776
		c20.745,1.718,34.93,22.218,40.74,42.207c12.492,42.984-2.996,94.586-41.14,118.009c-13.457,8.264-28.839,12.829-44.221,16.401
		c-31.168,7.238-66.248,10.107-93.03-7.401c-3.412-2.23-6.938-4.865-11.014-4.864c-3.731,0.001-7.042,2.224-10.194,4.22
		c-45.204,28.619-109.643,22.027-148.115-15.153c-23.939,8.04-56.088,3.328-75.362-12.988
		c-19.274-16.316-29.175-43.018-25.197-67.955s21.694-47.234,45.088-56.744c-12.976-5.614-23.657-17.82-29.682-30.61
		c-7.759-16.469-7.025-37.221,3.758-51.89C54.43,215.402,77.332,211.868,93.913,219.386z"/>
	<g style="opacity:0.56;">
		<path style="fill:#BEBCED;" d="M458.72,166.407c6.454,4.246,11.367,10.961,12.901,18.533c1.535,7.572-0.506,15.907-5.782,21.55
			c-5.276,5.644-13.775,8.236-21.166,5.987c-8.424-2.564-14.281-10.895-15.559-19.607
			C426.45,174.702,438.972,153.415,458.72,166.407z"/>
		<path style="fill:#BEBCED;" d="M54.631,160.867c5.048,3.83,7.754,10.278,7.793,16.614c0.04,6.336-2.376,12.523-6.001,17.721
			c-2.79,4.001-6.382,7.551-10.793,9.635c-4.41,2.084-9.7,2.572-14.186,0.655c-4.213-1.8-7.391-5.567-9.139-9.802
			c-1.747-4.235-2.176-8.914-1.979-13.491c0.233-5.437,1.371-10.956,4.25-15.574C30.404,157.276,45.633,154.039,54.631,160.867z"/>
		<path style="fill:#BEBCED;" d="M47.165,66.124c6.275-5.947,15.357-9.24,23.799-7.38c11.614,2.558,19.481,14.125,21.496,25.845
			c2.283,13.278-2.174,28.145-13.074,36.065c-10.899,7.921-28.181,6.7-36.192-4.133C32.78,102.437,34.654,77.98,47.165,66.124z"/>
		<path style="fill:#BEBCED;" d="M468.085,451.409c1.46,0.645,2.599,1.853,3.53,3.15c3.826,5.334,4.53,12.75,1.774,18.709
			c-2.755,5.958-8.86,10.225-15.402,10.765C436.658,485.794,443.155,440.395,468.085,451.409z"/>
		<path style="fill:#BEBCED;" d="M433.812,143.643c-0.142-0.56-0.451-1.256-0.718-1.769c-0.317-0.611-0.821-1.232-1.304-1.727
			c-0.346-0.355-1.013-0.85-1.434-1.113c-0.33-0.206-0.547-0.266-0.989-0.453c-1.044-0.44-1.637-0.7-2.918-0.666
			c-1.993,0.054-3.801,0.767-5.237,2.174c-0.329,0.322-0.819,1.002-1.062,1.391c0.206-0.329-0.557,1.157-0.697,1.674
			c-0.301,1.113-0.353,2.584,0.005,3.694c0.165,0.511,0.389,0.995,0.645,1.461c0.064,0.165,0.138,0.328,0.229,0.486
			c0.16,0.572,0.45,1.068,0.868,1.489c0.476,0.735,1.107,1.314,1.894,1.738c0.536,0.324,1.123,0.597,1.729,0.74
			c1.179,0.278,2.499,0.371,3.67,0.015c1.029-0.312,1.766-0.711,2.587-1.345c0.806-0.622,1.461-1.277,1.98-2.189
			c0.239-0.42,0.612-1.293,0.74-1.759c0.126-0.461,0.253-1.413,0.26-1.893C434.066,145.1,433.933,144.119,433.812,143.643z"/>
		<path style="fill:#BEBCED;" d="M475.094,138.878c-0.742-3.41-3.158-6.865-6.099-8.718c-3.808-2.399-8.855-1.915-12.338,0.776
			c-3.558,2.749-5.085,7.211-3.985,11.598c0.75,2.991,2.701,5.411,5.244,6.976c1.219,1.271,2.819,2.22,4.432,2.667
			c2.563,0.71,5.487,0.38,7.786-0.957C474.45,148.71,476.121,143.596,475.094,138.878z"/>
		<path style="fill:#BEBCED;" d="M128.185,57.107c-1.025-2.697-3.353-4.888-6.328-5.516c-2.926-0.617-6.119-0.259-8.655,1.424
			c-3.066,2.035-5.189,5.415-5.037,9.189c0.152,3.775,2.192,7.031,5.38,9.008c2.51,1.557,5.976,1.986,8.783,1.113
			c4.368-1.358,7.286-5.285,7.453-9.838C129.853,60.54,129.239,58.684,128.185,57.107z"/>
		<path style="fill:#BEBCED;" d="M84.341,147.101c-0.009-0.066-0.028-0.128-0.058-0.188c-0.259-0.613-0.517-1.226-0.776-1.839
			c-0.334-0.637-0.811-1.208-1.323-1.715c-0.532-0.442-1.08-0.864-1.643-1.265c-0.614-0.259-1.229-0.518-1.843-0.778
			c-0.748-0.222-1.535-0.338-2.33-0.337c-1.538,0.002-1.961,0.196-3.148,0.697c-1.09,0.46-0.982,0.387-1.915,1.107
			c-0.924,0.714-0.841,0.636-1.556,1.561c-0.691,0.894-1.284,1.622-1.468,2.857c-0.323,1.031-0.369,2.062-0.139,3.093
			c0.047,1.032,0.354,1.994,0.921,2.884l1.213,1.57c0.703,0.757,1.535,1.291,2.497,1.604c0.605,0.351,1.257,0.527,1.958,0.53
			c1.031,0.231,2.062,0.185,3.093-0.139c0.027-0.009,0.055-0.021,0.082-0.03c0.015-0.004,0.029-0.005,0.044-0.009
			c1.011-0.046,1.952-0.346,2.824-0.901c0.011-0.007,0.022-0.013,0.034-0.02c0.519-0.401,1.037-0.801,1.556-1.202
			c0.75-0.696,1.28-1.521,1.59-2.474c0.348-0.6,0.523-1.246,0.525-1.94C84.707,149.145,84.661,148.123,84.341,147.101z"/>
		<path style="fill:#BEBCED;" d="M385.986,17.853c-5.321-3.772-12.619-4.728-18.88-3.002c-2.528,0.35-4.962,1.305-7.147,3.005
			c-0.414,0.297-0.811,0.619-1.186,0.966c-5.298,4.9-6.962,12.495-4.651,19.257c4.569,13.366,20.793,18.568,33.07,12.988
			C401.829,44.414,396.919,25.601,385.986,17.853z"/>
		<path style="fill:#BEBCED;" d="M410.714,68.834c-0.323-0.764-0.645-1.529-0.968-2.293c-0.82-1.552-2.156-2.521-3.53-3.505
			c-1.475-0.855-3.065-1.286-4.772-1.291c-1.707,0.005-3.298,0.436-4.772,1.291c-0.095,0.043-0.169,0.093-0.257,0.15
			c-0.599,0.39-1.424,1.028-1.945,1.516c-0.646,0.605-1.25,1.341-1.62,2.154c-0.281,0.666-0.562,1.332-0.843,1.998
			c-0.349,1.112-0.398,2.224-0.149,3.336c0.002,0.561,0.108,1.093,0.317,1.597c0.012,0.05,0.016,0.101,0.028,0.15
			c0.037,0.148,0.081,0.292,0.131,0.436c0.258,0.743,0.66,1.821,1.071,2.492c0.489,0.633,0.979,1.267,1.468,1.9l1.901,1.468
			c0.748,0.316,1.495,0.631,2.243,0.947c1.248,0.391,2.496,0.447,3.744,0.168c0.848-0.003,1.637-0.216,2.37-0.641
			c0.795-0.223,1.486-0.626,2.072-1.207c0.706-0.417,1.267-0.979,1.684-1.684c0.83-0.907,1.39-1.971,1.681-3.193
			c0.059-0.14,0.088-0.271,0.114-0.422c0.081-0.45,0.143-0.903,0.186-1.358c0.081-0.483,0.144-0.969,0.189-1.457
			C410.943,70.535,410.828,69.685,410.714,68.834z"/>
		<path style="fill:#BEBCED;" d="M44.967,456.342c-1.569-5.711-6.237-10.292-11.7-12.301c-5.277-1.94-12.051-0.713-15.911,3.586
			c-4.446,4.953-5.19,12.069-1.517,17.714c2.727,4.19,7.302,7.532,12.213,8.633c1.213,0.272,2.427,0.38,3.619,0.36
			c2.096,0.149,4.291-0.286,6.404-1.327C44.061,470.058,46.675,462.564,44.967,456.342z"/>
		<path style="fill:#BEBCED;" d="M68.396,465.847c-0.26-0.617-0.52-1.233-0.781-1.85c-0.688-1.164-1.615-2.09-2.778-2.778
			c-0.889-0.566-1.849-0.872-2.879-0.919c-1.029-0.231-2.059-0.184-3.088,0.138c-1.008,0.24-1.886,0.702-2.633,1.386
			c-0.843,0.546-1.508,1.27-1.995,2.173c-0.7,1.208-1.053,2.511-1.057,3.909c0.002,0.028,0.005,0.056,0.008,0.083
			c-0.04,1.065,0.182,2.058,0.666,2.98c0.312,0.959,0.845,1.789,1.599,2.489c0.522,0.403,1.043,0.806,1.565,1.209
			c0.888,0.565,1.846,0.871,2.876,0.918c0.685,0.184,1.371,0.184,2.056,0c1.029-0.047,1.988-0.353,2.876-0.918
			c0.522-0.403,1.044-0.806,1.565-1.209c0.959-0.965,1.622-2.103,1.989-3.413c0.004-0.027,0.008-0.054,0.011-0.081
			C68.765,468.592,68.765,467.219,68.396,465.847z"/>
		<path style="fill:#BEBCED;" d="M34.221,300.155c-3.316-5.101-9.159-6.424-14.554-3.816c-2.639,1.276-4.737,3.334-6.245,5.798
			c-0.465,0.598-0.902,1.241-1.293,1.972c-1.464,2.74-2.335,5.839-2.283,8.96c0.104,6.244,4.151,11.829,9.938,13.566
			c2.266,0.918,4.701,1.061,7.269,0.092c4.893-1.324,9.055-5.296,10.538-10.148C39.371,310.756,37.407,305.055,34.221,300.155z"/>
		<path style="fill:#BEBCED;" d="M474.845,276.774c-6.412-6.442-17.594-3.365-20.38,5.072c-1.357,4.11-0.061,8.744,2.867,11.845
			c1.043,1.104,2.364,2.047,3.819,2.731c2.541,1.366,5.637,1.751,8.563,0.944C478.522,294.938,481.118,283.077,474.845,276.774z"/>
		<path style="fill:#BEBCED;" d="M193.587,26.807c-0.573-0.906-1.213-1.813-2.011-2.535c-1.224-1.107-2.209-1.702-3.661-2.315
			c-1.67-0.705-2.335-0.935-4.427-0.999c-1.072-0.033-2.209,0.152-3.249,0.367c-1.062,0.22-2.079,0.684-3.027,1.197
			c-0.124,0.067-0.238,0.14-0.355,0.217c-0.66,0.436-1.64,1.156-2.199,1.716c-0.701,0.702-1.376,1.63-1.879,2.491
			c-0.359,0.809-0.704,1.625-1.034,2.446l-0.354,2.635c0,1.416,0.368,2.677,0.906,3.952c0.556,1.317,1.232,2.47,2.288,3.486
			c0.072,0.069,0.156,0.129,0.231,0.196c0.738,0.92,1.629,1.716,2.679,2.282c1.713,0.923,3.541,1.484,5.502,1.512
			c0.857,0.012,2.175-0.206,3.007-0.401c0.94-0.22,1.892-0.624,2.714-1.133c2.07-1.281,3.565-2.921,4.869-4.963
			C195.452,34.038,195.433,29.729,193.587,26.807z"/>
		<path style="fill:#BEBCED;" d="M54.044,28.948c0.002-0.543-0.08-1.067-0.248-1.572c-0.062-0.214-0.131-0.426-0.196-0.638
			c-0.13-0.426-0.261-0.851-0.391-1.277l-0.963-2.281c-0.6-1.113-1.42-2.006-2.46-2.68c-0.596-0.592-1.298-1.001-2.107-1.228
			c-1.138-0.598-2.365-0.872-3.68-0.823c-0.846,0.114-1.693,0.227-2.539,0.341c-0.76,0.321-1.521,0.642-2.281,0.963
			c-2.125,1.122-3.704,3.471-4.389,5.708c-0.514,1.678-1.064,3.256-1.011,5.077c0.078,2.668,1.086,5.32,2.993,7.227
			c0.926,0.997,2.022,1.701,3.289,2.113c1.218,0.64,2.53,0.933,3.938,0.88c2.643-0.118,5.384-0.987,7.227-2.993
			c1.866-2.033,2.911-4.431,2.993-7.227C54.248,30.004,54.19,29.474,54.044,28.948z"/>
		<path style="fill:#BEBCED;" d="M479.209,47.186c-1.915-4.976-5.347-9.424-10.645-11.05c-6.686-2.052-13.682,2.397-15.416,8.984
			c-2.301,8.74,2.655,18.849,10.642,22.828c3.271,1.629,6.87,1.905,10.126,0c1.298-0.759,2.54-1.952,3.464-3.35
			c0.546-0.481,1.059-1.014,1.521-1.611C482.79,57.952,481.264,52.525,479.209,47.186z"/>
	</g>
</g>
<g id="OBJECTS">
	<g>
		<defs>
			<rect id="SVGID_1_" width="500" height="500"/>
		</defs>
		<clipPath id="SVGID_00000085944912111557158600000001734983638471974273_">
			<use xlink:href="#SVGID_1_"  style="overflow:visible;"/>
		</clipPath>
		<g style="clip-path:url(#SVGID_00000085944912111557158600000001734983638471974273_);">
			<path style="fill:#FFFFFF;" d="M429.489,511.697c0,0-6.417,0.19-17.745,0.476c-29.453,0.736-92.101,2.122-161.347,2.511
				c-3.126,0.026-6.261,0.035-9.405,0.052c-43.907,0.191-89.962-0.035-131.522-1.1l6.426-215.681l51.753-34.095l2.979-3.282
				c-1.784-3.135-2.39-7.171-1.533-10.262c0.944-3.455,3.404-6.53,6.694-8.279c3.291-1.758,7.37-2.156,10.947-1.013
				c0.104,0.035,0.208,0.078,0.32,0.121c-1.308-3.265-5.612-14.021-6.625-15.987c-7.3-14.229-8.885-32.848-10.02-48.609
				c-1.238-17.147,0.035-34.667,6.149-50.852c7.023-18.611,20.36-34.797,37.377-45.093c10.21-6.175,21.815-9.873,33.584-11.553
				c5.057-0.719,10.245-1.083,15.476-1.048c24.482,0.095,49.796,8.53,65.861,27.262c20.117,23.461,21.59,56.04,18.446,85.381
				c-2.667,25.019-10.384,55.338-33.42,69.333c3.819-2.321,8.288,0.043,11.293,3.369c2.996,3.326,3.975,8.071,3.733,12.54
				c7.699,0.502,16.454,3.083,23.019,7.136c16.654,10.288,30.371,25.279,39.144,42.781c7.915,15.813,11.76,33.307,15.354,50.619
				C416.386,414.461,425.011,462.845,429.489,511.697z"/>
			<path style="opacity:0.4;fill:#F2F2F2;" d="M411.744,512.173c0.641-62.085-16.645-123.338-38.217-181.725
				c-2.841-7.673-5.802-15.415-10.609-22.031c-12.878-17.745-36.13-24.041-57.711-27.92c4.971-16.065-2.182-35.065-16.523-43.864
				c16.697-7.621,20.646-29.306,21.027-47.657c0.312-15.095-0.476-30.926-8.089-43.968c-7.612-13.034-24.023-22.083-38.131-16.705
				c0.277-20.109,0.052-40.2-0.494-60.301c24.482,0.095,49.796,8.53,65.861,27.262c20.117,23.461,21.59,56.04,18.446,85.381
				c-2.667,25.019-10.384,55.338-33.42,69.333c3.819-2.321,8.288,0.043,11.293,3.369c2.996,3.326,3.975,8.071,3.733,12.54
				c7.699,0.502,16.454,3.083,23.019,7.136c16.654,10.288,30.371,25.279,39.144,42.781c7.915,15.813,11.76,33.307,15.354,50.619
				c9.959,48.038,18.585,96.422,23.062,145.274C429.489,511.697,423.072,511.888,411.744,512.173z"/>
			<path style="fill:#FFB594;" d="M204.199,176.211c0.109-14.092,3.804-28.641,12.876-39.172
				c22.752-26.411,82.58-25.768,97.335,8.936c7.63,17.947,2.592,41.211-3.323,59.062c-8.834,26.659-30.44,49.011-60.677,44.067
				C214.687,243.262,203.944,209.274,204.199,176.211z"/>
			<path style="fill:#FFFFFF;" d="M92.459,356.526c-10.98,30.407-17.799,62.38-20.087,94.698
				c-0.744,10.517-0.977,21.327,2.274,31.339c5.104,15.718,19.188,28.031,35.211,30.781c19.915,3.419,40.321-7.585,52.765-23.789
				c12.443-16.204,18.044-36.814,20.847-57.191c2.961-21.529,3.113-43.459,0.451-65.03c-0.456-3.693-1.054-7.533-3.182-10.558
				c-3.397-4.828-9.695-6.316-15.447-7.285c-13.947-2.348-28.049-3.732-42.178-4.143c-7.173-0.209-14.375-0.22-21.545,0.127
				C95.113,345.788,94.522,350.813,92.459,356.526z"/>
			<path style="fill:#E6E6E6;" d="M326.632,265.376c-7.477,5.616-13.619,12.38-21.824,17.148
				c-8.326,4.838-17.456,8.006-26.656,10.711c-1.083,0.318-0.902,2.021,0.271,2c10.008-0.181,19.531-3.314,28.269-8.134
				c8.188-4.517,17.717-11.055,22.079-19.587C329.411,266.262,327.986,264.359,326.632,265.376z"/>
			<path style="fill:#E6E6E6;" d="M212.401,290.935c-2.798-2.61-6.567-4.148-9.766-6.237c-3.59-2.345-7.226-4.626-10.752-7.069
				c-7.207-4.994-12.985-10.507-18.207-17.538c-1.722-2.319-4.984-0.39-3.844,2.247c3.403,7.872,10.833,13.777,17.839,18.373
				c3.724,2.443,7.571,4.758,11.474,6.905c3.781,2.08,8.371,4.882,12.837,4.33C212.451,291.887,212.814,291.32,212.401,290.935z"/>
			<path style="fill:#E6E6E6;" d="M378.581,304.559c-0.134-0.228-0.223-0.509-0.487-0.604c-0.187-0.068-0.375-0.135-0.563-0.203
				c-0.587-0.212-1.28,0.042-1.709,0.452c-5.347,5.108-8.996,11.671-11.775,18.458c-1.455,3.553-2.628,7.208-3.433,10.963
				c-0.693,3.235-1.927,7.388-0.667,10.547c0.652,1.636,2.888,2.207,3.895,0.509c1.582-2.665,1.369-5.879,1.952-8.884
				c0.684-3.525,1.624-7.007,2.823-10.391c2.428-6.851,6.244-12.883,9.964-19.073C378.903,305.796,378.896,305.095,378.581,304.559z
				"/>
			<path style="fill:#E6E6E6;" d="M358.508,355.379c-4.051,1.787-3.241,10.395-3.457,14.073c-0.387,6.583-0.654,13.176-0.949,19.764
				c-0.603,13.456-0.882,26.934-1.172,40.4c-0.58,26.932-1.014,53.895-0.356,80.829c0.091,3.714,5.717,3.726,5.778,0
				c0.46-28.089,0.49-56.181,1.156-84.268c0.326-13.755,0.803-27.505,1.175-41.258c0.186-6.867,0.578-13.752,0.519-20.622
				C361.197,363.778,361.48,354.067,358.508,355.379z"/>
			<path style="fill:#E6E6E6;" d="M169.334,387.657c-0.356-1.386-2.489-1.412-2.831,0c-1.255,5.169-1.206,10.634-1.566,15.918
				c-0.389,5.712-0.833,11.426-1.452,17.118c-1.238,11.378-3.124,22.706-5.635,33.872c-2.348,10.445-5.148,20.885-8.804,30.954
				c-3.298,9.084-7.687,17.087-15.418,23.078c-2.397,1.857,0.688,5.715,3.214,4.165c7.848-4.813,12.889-13.034,16.336-21.353
				c4.366-10.535,7.333-21.771,9.925-32.855c2.667-11.406,4.641-22.964,5.887-34.611c0.637-5.953,1.145-11.934,1.318-17.92
				C170.484,399.972,170.852,393.57,169.334,387.657z"/>
			<g>
				<g>
					<path style="fill:#333333;" d="M235.81,149.947c-0.752-1.484-2.14-2.302-3.653-2.549c-4.836-1.288-7.754,2.044-8.678,6.356
						c-0.288,0.869-0.475,1.774-0.54,2.691c-0.159,2.254,0.418,4.336,1.418,6.242c0.404,0.885,0.914,1.69,1.525,2.382
						c0.149,0.198,0.294,0.398,0.45,0.591c0.841,1.04,2,1.499,3.199,1.529c1.476,0.305,3.046,0.129,4.401-0.635
						c1.951-1.101,3.081-3.063,3.561-5.178C238.38,157.46,237.599,153.481,235.81,149.947z"/>
					<path style="fill:#333333;" d="M298.416,155.718c-1.067-4.097-5.273-6.792-9.343-5.075c-6.686,2.822-6.086,16.259,1.14,18.135
						c2.841,0.738,4.953-0.252,6.314-2.06c0.324-0.334,0.628-0.698,0.888-1.121C299.111,162.842,299.21,158.764,298.416,155.718z"/>
				</g>
				<path style="fill:#333333;" d="M238.894,136.012c-4.146-4.1-14.194-3.428-18.723-0.255c-2.346,1.644-1.425,5.026,1.426,5.266
					c2.713,0.229,5.399-0.211,8.12-0.127c2.667,0.083,5.146,1.042,7.779,0.408C239.826,140.742,240.55,137.649,238.894,136.012z"/>
				<path style="fill:#333333;" d="M304.353,137.994c-1.777-3.108-5.526-3.217-8.796-3.528c-3.393-0.323-7.015,0.088-10.088,1.615
					c-1.885,0.937-1.592,4.426,0.622,4.756c2.939,0.438,5.931,0.37,8.883,0.748c3.088,0.395,5.361,1.758,8.341,0.371
					C304.743,141.291,305.072,139.251,304.353,137.994z"/>
			</g>
			<path style="fill:#E6E6E6;" d="M276.074,245.466c-5.326,9.942-10.658,19.884-15.983,29.826c-1.312,2.442-2.646,4.945-3.441,7.863
				c-1.102,4.053-1.085,8.582-1.056,12.973c0.477,72.867-0.312,145.751-2.373,218.557c-2.05,0.026-4.105,0.035-6.166,0.052
				c0.414-70.156,0.965-140.303,1.635-210.451c0.096-9.673,0.238-19.685,2.941-28.431c1.596-5.179,4.009-9.647,6.399-14.055
				c2.924-5.395,5.684-11.267,8.852-16.324C270.141,240.262,272.071,241.327,276.074,245.466z"/>
			<g>
				<path style="fill:#CCCCCC;" d="M315.279,206.565c-3.074,11.899-15.424,48.549-52.541,57.287
					c-0.502,0.121-1.013,0.216-1.533,0.268c-1.948,0.242-3.932,0.078-5.828-0.459c-5.144-1.446-14.618-4.971-24.049-12.921
					c-10.6-8.937-21.131-23.486-25.383-46.981c-0.546-2.988,0.39-6.053,2.546-8.219c7.153-7.171,24.959-23.53,44.028-29.635
					c2.841-0.909,5.707-1.585,8.565-1.975c0.329-0.043,0.667-0.069,0.996-0.069c1.152-0.035,2.303,0.156,3.395,0.563
					c7.838,2.919,35.879,14.488,48.696,34.944C315.512,201.516,315.911,204.114,315.279,206.565z"/>
				<path style="fill:#BFBFBF;" d="M315.279,206.565c-3.074,11.899-15.424,48.549-52.541,57.287
					c-0.502,0.121-1.013,0.216-1.533,0.268c-1.524-24.3-1.49-48.696,0.095-72.997c0.294-4.529,0.286-18.403,0.78-27.262
					c1.152-0.035,2.303,0.156,3.395,0.563c7.838,2.919,35.879,14.488,48.696,34.944
					C315.512,201.516,315.911,204.114,315.279,206.565z"/>
				<g>
					<path style="fill:#FFFFFF;" d="M267.161,197.739c8.881,4.003,14.8,14.677,11.921,24.56
						c-2.599,8.923-12.042,15.349-21.285,14.37c-15.499-1.641-21.912-22.045-12.404-33.575
						C250.667,196.699,259.574,194.319,267.161,197.739z"/>
					<path style="fill:#5C5996;" d="M264.645,204.683c5.589,2.52,9.314,9.237,7.502,15.456c-1.636,5.615-7.578,9.659-13.395,9.043
						c-9.754-1.033-13.79-13.873-7.806-21.129C254.266,204.028,259.871,202.531,264.645,204.683z"/>
				</g>
				<path style="opacity:0.31;fill:#FFFFFF;" d="M252.518,165.905c-6.4,4.884-12.765,9.621-18.143,15.684
					c-6.997,7.881-12.297,17.606-13.354,28.102c-1.091,10.834,2.356,21.59,6.365,31.705c1.247,3.144,2.546,6.261,3.94,9.344
					c-10.6-8.937-21.131-23.486-25.383-46.981c-0.546-2.988,0.39-6.053,2.546-8.219C215.643,188.37,233.449,172.011,252.518,165.905
					z"/>
			</g>
			<g>
				<path style="opacity:0.39;fill:#FFFFFF;" d="M216.977,130.571c16.347-1.184,59.07-3.41,93.96,1.669
					c4.785,0.696,8.458,4.7,8.843,9.614c0.595,7.6-1.499,19.489-4.318,31.734c-0.822,3.569-3.873,6.126-7.468,6.204
					c-5.874,0.128-13.572-0.13-26.168-2.275c0,0-11.645-10.767-16.876-22.303l-5.301-0.445c0,0-10.353,18.721-16.274,21.434
					c0,0-13.575,0.965-26.17-0.177c-3.863-0.35-6.878-3.554-7.109-7.502c-0.435-7.426-4.477-19.732-2.495-29.557
					C208.535,134.337,212.354,130.906,216.977,130.571z"/>
				<path style="fill:#F2F2F2;" d="M323.163,141.589c-0.513-6.55-5.338-11.776-11.736-12.707
					c-35.413-5.154-78.02-2.903-94.695-1.695c-6.105,0.442-11.228,5.01-12.457,11.109c-1.458,7.229-0.032,15.175,1.226,22.184
					c0.554,3.087,1.077,6.003,1.208,8.242c0.328,5.593,4.708,10.186,10.189,10.683c12.72,1.154,26.151,0.222,26.718,0.183
					l0.613-0.043l0.559-0.256c5.735-2.627,13.589-15.472,16.744-20.955l1.202,0.101c5.735,11.283,16.316,21.14,16.788,21.575
					l0.74,0.685l0.993,0.169c11.47,1.954,18.953,2.351,24.282,2.351c0.902,0,1.743-0.012,2.53-0.029
					c5.129-0.111,9.529-3.745,10.702-8.835C322.312,158.959,323.708,148.549,323.163,141.589z M312.156,172.826
					c-0.474,2.06-2.216,3.53-4.235,3.573c-4.998,0.111-12.275-0.032-24.501-2.056c-2.54-2.483-11.221-11.362-15.379-20.531
					L267.219,152l-9.475-0.797l-1.063,1.923c-4.498,8.131-11.036,17.654-14.261,19.737c-2.934,0.174-14.359,0.74-24.908-0.217
					c-2.163-0.197-3.895-2.054-4.028-4.322c-0.155-2.643-0.713-5.751-1.303-9.043c-1.151-6.413-2.456-13.683-1.253-19.644
					c0.63-3.123,3.218-5.459,6.296-5.682c12.837-0.93,57.499-3.558,93.226,1.642c3.188,0.464,5.69,3.207,5.949,6.521
					C316.881,148.285,315.493,158.33,312.156,172.826z"/>
			</g>
			<g>
				<path style="fill:#6464A0;" d="M205.055,335.898c-5.006,12.456-13.164,23.391-22.04,33.457
					c-11.352,12.874-25.256,25.181-42.289,27.303c-13.636,1.694-27.957-3.923-36.801-14.429
					c-4.502-5.349-7.579-11.749-10.184-18.234c-2.519-6.314-4.642-12.778-6.325-19.36c-2.669-10.355-4.288-20.979-4.824-31.666
					c-0.493-9.916,0.032-20.228,4.449-29.115c0.943-1.908,2.455-3.956,4.577-3.934c1.962,0.011,3.387,1.801,4.449,3.441
					c5.949,9.251,9.819,19.649,13.636,29.962c-0.525-14.322-1.018-28.89,2.551-42.772c1.018-3.945,2.53-8.051,5.789-10.495
					c0.922-0.697,2.037-1.243,3.194-1.179c2.476,0.161,3.827,2.905,4.62,5.253c4.492,13.346,7.054,27.26,9.594,41.11
					c0.354-14.804,0.729-29.737,3.977-44.187c0.632-2.809,1.447-5.724,3.452-7.783c2.015-2.058,5.574-2.884,7.772-1.029
					c1.254,1.061,1.812,2.712,2.262,4.288c4.341,15.254,4.288,31.366,4.202,47.221c1.855-9.09,4.749-17.977,8.619-26.414
					c1.061-2.315,2.262-4.674,4.277-6.239c2.015-1.554,5.06-2.069,7.075-0.514c1.715,1.329,2.208,3.677,2.433,5.821
					c0.665,6.271,0.021,12.585-0.686,18.845c-1.308,11.481-2.841,22.93-4.609,34.357c-1.276,8.276,3.312-0.236,5.381-2.894
					c2.873-3.698,6.271-7.064,10.57-9.047c1.147-0.525,2.38-0.933,3.645-1.179c3.945-0.793,8.179-0.107,10.816,2.809
					C208.561,323.634,207.231,330.474,205.055,335.898z"/>
				<path style="fill:#5C5996;" d="M205.055,335.898c-5.006,12.456-13.164,23.391-22.04,33.457
					c-11.352,12.874-25.256,25.181-42.289,27.303c-13.636,1.694-27.957-3.923-36.801-14.429
					c-4.502-5.349-7.579-11.749-10.184-18.234c-2.519-6.314-4.642-12.778-6.325-19.36c8.822,11.084,19.146,20.55,32.384,25.02
					c14.59,4.91,31.162,2.723,44.594-4.802c13.432-7.525,23.734-20.078,29.64-34.293c1.361-3.291,2.53-6.871,1.822-10.355
					c-0.322-1.586-1.093-2.723-2.037-3.72c3.945-0.793,8.179-0.107,10.816,2.809C208.561,323.634,207.231,330.474,205.055,335.898z"
					/>
			</g>
		</g>
	</g>
	<g>
		<g>
			<g>
				<path style="fill:#8F8FD1;" d="M101.878,209.99c-0.326,0.775-0.916,1.394-1.559,1.917c-1.292,1.05-2.844,1.777-4.499,2.107
					c1.185,1.613,2.557,3.091,4.074,4.389c0.616-1.802,1.756-3.369,3.172-4.59c0.867-0.747,1.937-1.396,3.112-1.272
					c-0.449-0.051-1.717-1.928-2.06-2.312c-0.433-0.485-1.381-1.973-2.017-1.957C102.133,208.872,102.108,209.441,101.878,209.99z"
					/>
				<path style="fill:#7C7CC1;" d="M107.037,210.459c0.578,0.771,1.034,1.598,1.218,2.435c0.335,1.525-0.754,1.991-2.057,1.408
					c-2.204-0.985-3.93-3.232-5.43-5.156c-1.363-1.749-0.046-3.17,1.731-2.595c0.836,0.27,1.592,0.868,2.266,1.515
					C105.551,208.82,106.386,209.59,107.037,210.459z"/>
			</g>
			<g>
				<path style="fill:#8F8FD1;" d="M66.119,248.583c0.325-0.775,0.916-1.394,1.559-1.917c1.292-1.05,2.844-1.777,4.499-2.107
					c-1.185-1.613-2.557-3.091-4.074-4.39c-0.616,1.802-1.756,3.369-3.173,4.59c-0.867,0.747-1.937,1.396-3.112,1.272
					c0.449,0.051,1.718,1.928,2.06,2.312c0.433,0.486,1.381,1.973,2.017,1.957C65.864,249.7,65.889,249.131,66.119,248.583z"/>
				<path style="fill:#7C7CC1;" d="M60.96,248.113c-0.578-0.771-1.034-1.598-1.218-2.435c-0.335-1.525,0.754-1.991,2.057-1.408
					c2.204,0.986,3.93,3.232,5.43,5.156c1.363,1.749,0.047,3.17-1.731,2.595c-0.836-0.27-1.592-0.868-2.266-1.515
					C62.446,249.753,61.611,248.982,60.96,248.113z"/>
			</g>
			<g>
				<path style="fill:#8F8FD1;" d="M82.997,202.999c0.318,0.778,0.338,1.633,0.253,2.458c-0.171,1.656-0.754,3.268-1.691,4.671
					c1.979,0.302,3.993,0.378,5.985,0.223c-0.839-1.709-1.141-3.624-1.002-5.489c0.085-1.142,0.382-2.357,1.301-3.1
					c-0.353,0.282-2.578-0.149-3.091-0.178c-0.649-0.037-2.372-0.418-2.81,0.042C82.387,202.028,82.771,202.448,82.997,202.999z"/>
				<path style="fill:#7C7CC1;" d="M86.976,199.682c0.954,0.137,1.861,0.399,2.583,0.86c1.315,0.841,0.875,1.941-0.459,2.45
					c-2.256,0.862-5.064,0.494-7.485,0.193c-2.201-0.273-2.274-2.209-0.611-3.059c0.782-0.4,1.74-0.512,2.674-0.531
					C84.767,199.574,85.901,199.528,86.976,199.682z"/>
			</g>
			<g>
				<path style="fill:#8F8FD1;" d="M85,255.574c-0.318-0.778-0.338-1.633-0.253-2.458c0.171-1.656,0.755-3.268,1.691-4.671
					c-1.979-0.302-3.993-0.378-5.985-0.223c0.839,1.709,1.141,3.624,1.002,5.489c-0.085,1.141-0.382,2.357-1.301,3.1
					c0.353-0.282,2.578,0.149,3.091,0.178c0.649,0.037,2.372,0.418,2.81-0.042C85.61,256.544,85.226,256.124,85,255.574z"/>
				<path style="fill:#7C7CC1;" d="M81.021,258.89c-0.954-0.137-1.861-0.399-2.583-0.86c-1.315-0.841-0.875-1.941,0.459-2.45
					c2.256-0.862,5.064-0.494,7.485-0.193c2.201,0.273,2.274,2.209,0.611,3.059c-0.782,0.4-1.739,0.512-2.674,0.531
					C83.23,258.998,82.096,259.044,81.021,258.89z"/>
			</g>
			<g>
				<path style="fill:#8F8FD1;" d="M57.711,230.288c0.778-0.318,1.633-0.338,2.458-0.253c1.656,0.171,3.268,0.755,4.671,1.691
					c0.302-1.979,0.378-3.993,0.223-5.985c-1.709,0.839-3.624,1.141-5.489,1.002c-1.142-0.085-2.357-0.382-3.1-1.301
					c0.282,0.354-0.149,2.578-0.178,3.092c-0.037,0.649-0.418,2.372,0.042,2.81C56.741,230.898,57.16,230.513,57.711,230.288z"/>
				<path style="fill:#7C7CC1;" d="M54.395,226.308c0.137-0.954,0.398-1.861,0.86-2.583c0.841-1.315,1.941-0.875,2.45,0.459
					c0.862,2.256,0.494,5.064,0.193,7.485c-0.273,2.201-2.209,2.275-3.059,0.611c-0.4-0.782-0.512-1.739-0.531-2.674
					C54.286,228.518,54.241,227.383,54.395,226.308z"/>
			</g>
			<g>
				<path style="fill:#8F8FD1;" d="M110.286,228.284c-0.778,0.318-1.633,0.338-2.458,0.253c-1.656-0.171-3.268-0.755-4.671-1.691
					c-0.302,1.979-0.377,3.993-0.223,5.985c1.709-0.839,3.624-1.141,5.489-1.002c1.142,0.085,2.357,0.382,3.1,1.301
					c-0.282-0.354,0.149-2.578,0.178-3.092c0.038-0.649,0.418-2.372-0.042-2.81C111.256,227.674,110.837,228.059,110.286,228.284z"
					/>
				<path style="fill:#7C7CC1;" d="M113.602,232.264c-0.137,0.954-0.399,1.861-0.86,2.583c-0.841,1.315-1.941,0.875-2.45-0.459
					c-0.862-2.256-0.494-5.064-0.193-7.485c0.273-2.201,2.209-2.275,3.059-0.611c0.4,0.782,0.512,1.739,0.531,2.674
					C113.711,230.054,113.756,231.189,113.602,232.264z"/>
			</g>
			<g>
				<path style="fill:#8F8FD1;" d="M103.295,247.166c-0.775-0.325-1.394-0.916-1.917-1.559c-1.05-1.292-1.777-2.844-2.107-4.499
					c-1.613,1.185-3.091,2.557-4.39,4.074c1.802,0.616,3.369,1.756,4.59,3.173c0.747,0.867,1.396,1.937,1.272,3.112
					c0.051-0.449,1.928-1.718,2.312-2.06c0.486-0.433,1.973-1.381,1.957-2.017C104.412,247.421,103.844,247.396,103.295,247.166z"/>
				<path style="fill:#7C7CC1;" d="M102.826,252.325c-0.771,0.578-1.598,1.034-2.435,1.218c-1.525,0.335-1.991-0.753-1.408-2.057
					c0.985-2.204,3.232-3.93,5.156-5.43c1.749-1.363,3.17-0.047,2.595,1.731c-0.27,0.836-0.868,1.592-1.515,2.266
					C104.465,250.839,103.695,251.674,102.826,252.325z"/>
			</g>
			<g>
				<path style="fill:#8F8FD1;" d="M104.269,224.921c1.963,9.067-3.232,19.7-11.527,23.93c-1.722,0.879-3.55,1.393-5.423,1.597
					c-6.347,0.693-13.163-2.209-17.874-6.773c-7.384-7.159-7.849-18.429-2.911-26.406c1.232-1.993,2.802-3.78,4.688-5.246
					c2.304-1.798,5.079-3.112,8.281-3.736C90.222,206.202,101.995,214.413,104.269,224.921z"/>
				<g>
					<path style="fill:#7C7CC1;" d="M70.454,231.337c-3.35,2.028-1.717,7.385,1.17,9.028c0.753,0.429,1.572,0.771,2.468,0.597
						c0.557-0.108,1.172-0.339,1.651-0.71c0.674-0.37,1.233-0.973,1.585-1.762c0.799-1.791-0.059-3.799-1.09-5.287
						C74.923,231.306,72.68,229.99,70.454,231.337z"/>
					<path style="fill:#7C7CC1;" d="M75.713,220.229c-0.607-0.406-1.243-0.658-1.969-0.751c-1.269-0.163-2.604,0.482-3.355,1.495
						c-1.094,1.475-0.901,3.482,0.242,4.862c0.867,1.048,2.222,1.666,3.55,1.843c1.031,0.138,2.086-0.121,2.9-0.783
						c1.243-1.011,1.659-2.739,1.03-4.207C77.662,221.639,76.735,220.772,75.713,220.229z"/>
					<path style="fill:#7C7CC1;" d="M84.076,229.418c-0.007-0.009-0.013-0.018-0.02-0.027c-0.016-0.018-0.033-0.033-0.049-0.05
						c-0.019-0.02-0.038-0.039-0.057-0.058c-0.304-0.316-0.66-0.569-1.065-0.743c-0.338-0.142-0.686-0.195-1.043-0.158
						c-0.362-0.023-0.71,0.045-1.045,0.205c-0.528,0.274-0.855,0.485-1.203,0.978c-0.284,0.403-0.461,0.871-0.516,1.362
						c-0.114,1.02,0.339,2.047,1.167,2.65c0.806,0.587,1.896,0.71,2.815,0.322c0.749-0.316,1.275-0.896,1.585-1.638
						c0.141-0.334,0.193-0.678,0.156-1.032c0.023-0.358-0.045-0.702-0.202-1.033C84.462,229.918,84.286,229.652,84.076,229.418z"/>
					<path style="fill:#7C7CC1;" d="M89.946,216.885c-1.135-1.265-2.721-2.205-4.484-1.936c-2.344,0.357-3.884,2.667-3.232,4.946
						c0.35,1.225,1.223,2.114,2.203,2.883c0.752,0.913,2.138,1.281,3.269,1.13c1.083-0.145,2.079-0.756,2.702-1.653
						C91.559,220.593,91.262,218.352,89.946,216.885z"/>
					<path style="fill:#7C7CC1;" d="M95.933,223.801c-1.121-0.269-2.313-0.04-3.226,0.695c-0.892,0.719-1.252,1.705-1.489,2.776
						c-0.083,0.377-0.111,0.767-0.096,1.156c-0.062,1.634,0.631,3.245,2.213,4.096c0.602,0.324,1.23,0.462,1.873,0.438
						c0.204,0.001,0.412-0.01,0.626-0.044c1.468-0.235,2.67-1.363,3.014-2.797c0-0.002,0.001-0.004,0.001-0.006
						c0.289-0.877,0.381-1.93,0.193-2.808c-0.165-0.771-0.414-1.486-0.914-2.112C97.565,224.488,96.804,224.01,95.933,223.801z"/>
					<path style="fill:#7C7CC1;" d="M86.711,240.079c-0.375-0.281-0.813-0.507-1.234-0.696c-0.812-0.365-1.76-0.504-2.637-0.359
						c-1.928,0.319-3.392,2.206-3.078,4.17c0.175,1.095,0.752,2.101,1.679,2.734c0.559,0.382,1.212,0.616,1.884,0.695
						c0.211,0.025,0.424,0.017,0.635,0.042c0.709,0.085,1.414-0.037,2.034-0.331c0.368-0.127,0.711-0.31,1.025-0.561
						c0.86-0.692,1.531-2.039,1.237-3.168c-0.173-0.662-0.314-1.186-0.754-1.753C87.276,240.56,87.009,240.302,86.711,240.079z"/>
					<path style="fill:#7C7CC1;" d="M95.515,235.542c-0.511-0.055-1.213,0.013-1.668,0.277c-0.403,0.158-0.736,0.403-1,0.734
						c-0.31,0.274-0.533,0.611-0.669,1.012c-0.062,0.258-0.123,0.515-0.185,0.773c-0.057,0.544,0.022,1.067,0.238,1.569
						c0.181,0.513,0.692,1.148,1.156,1.434c0.426,0.304,0.899,0.485,1.42,0.543c0.446,0.047,0.877-0.008,1.295-0.153
						c0.289-0.07,0.555-0.193,0.797-0.371c0.252-0.111,0.459-0.278,0.621-0.5c0.3-0.265,0.515-0.59,0.646-0.977
						c0.179-0.62,0.264-0.948,0.176-1.596c-0.08-0.583-0.297-1.108-0.668-1.569C97.147,236.064,96.35,235.633,95.515,235.542z"/>
					<path style="fill:#7C7CC1;" d="M76.58,213.328c-1.999,1.61,0.499,4.719,2.502,3.107
						C81.08,214.826,78.582,211.716,76.58,213.328z"/>
					<path style="fill:#7C7CC1;" d="M96.402,216.194c-0.73-0.047-1.442,0.125-2.023,0.593c-0.55,0.443-0.935,1.148-1.011,1.85
						c-0.053,0.363-0.015,0.712,0.112,1.048c0.071,0.364,0.232,0.689,0.481,0.975c0.472,0.535,1.117,0.964,1.85,1.011
						c0.73,0.047,1.442-0.125,2.023-0.593c0.55-0.443,0.935-1.148,1.011-1.85c0.053-0.363,0.015-0.712-0.112-1.048
						c-0.071-0.364-0.232-0.689-0.481-0.975C97.78,216.671,97.134,216.242,96.402,216.194z"/>
				</g>
				<path style="opacity:0.32;fill:#7C7CC1;" d="M104.269,224.921c1.963,9.067-3.232,19.7-11.527,23.93
					c-1.722,0.879-3.55,1.393-5.423,1.597c2.744-2.947,5.111-6.238,6.096-10.098c0.467-1.823,0.611-3.717,0.553-5.597
					c-0.124-4.236-1.258-8.441-3.271-12.167c-2.641-4.874-6.99-9.014-12.347-10.442c-2.304-0.617-4.787-0.654-7.127-0.121
					c2.304-1.798,5.079-3.112,8.281-3.736C90.222,206.202,101.995,214.413,104.269,224.921z"/>
			</g>
			<g>
				<path style="fill:#8F8FD1;" d="M64.702,211.407c0.775,0.325,1.394,0.916,1.917,1.559c1.05,1.292,1.777,2.844,2.107,4.499
					c1.613-1.185,3.091-2.557,4.389-4.074c-1.802-0.615-3.369-1.756-4.59-3.172c-0.747-0.867-1.396-1.937-1.272-3.112
					c-0.051,0.449-1.928,1.717-2.312,2.06c-0.485,0.433-1.973,1.381-1.957,2.017C63.585,211.152,64.153,211.176,64.702,211.407z"/>
				<path style="fill:#7C7CC1;" d="M65.171,206.247c0.771-0.578,1.598-1.034,2.435-1.218c1.525-0.335,1.991,0.754,1.408,2.057
					c-0.985,2.204-3.232,3.93-5.156,5.43c-1.749,1.363-3.17,0.046-2.595-1.731c0.27-0.836,0.868-1.592,1.515-2.266
					C63.532,207.733,64.302,206.899,65.171,206.247z"/>
			</g>
		</g>
		<g>
			<g>
				<path style="fill:#8F8FD1;" d="M471.073,419.884c-0.272,0.648-0.765,1.165-1.303,1.602c-1.08,0.878-2.377,1.485-3.76,1.761
					c0.991,1.348,2.137,2.583,3.405,3.668c0.514-1.506,1.467-2.815,2.651-3.836c0.725-0.625,1.618-1.167,2.6-1.063
					c-0.375-0.042-1.435-1.611-1.721-1.932c-0.361-0.406-1.154-1.649-1.685-1.635C471.286,418.951,471.266,419.426,471.073,419.884z
					"/>
				<path style="fill:#7C7CC1;" d="M475.385,420.276c0.483,0.645,0.864,1.335,1.018,2.035c0.28,1.274-0.63,1.664-1.719,1.177
					c-1.842-0.824-3.284-2.701-4.538-4.309c-1.139-1.462-0.039-2.649,1.447-2.169c0.699,0.226,1.331,0.725,1.894,1.266
					C474.143,418.907,474.841,419.55,475.385,420.276z"/>
			</g>
			<g>
				<path style="fill:#8F8FD1;" d="M441.189,452.137c0.272-0.648,0.766-1.165,1.303-1.602c1.079-0.878,2.377-1.485,3.76-1.761
					c-0.991-1.348-2.137-2.583-3.405-3.668c-0.514,1.506-1.467,2.815-2.651,3.836c-0.725,0.625-1.619,1.167-2.6,1.063
					c0.375,0.042,1.435,1.611,1.721,1.932c0.362,0.406,1.154,1.649,1.685,1.635C440.976,453.07,440.997,452.595,441.189,452.137z"/>
				<path style="fill:#7C7CC1;" d="M436.878,451.745c-0.483-0.645-0.864-1.335-1.018-2.035c-0.28-1.274,0.63-1.664,1.719-1.177
					c1.842,0.824,3.284,2.701,4.538,4.309c1.139,1.462,0.039,2.649-1.447,2.169c-0.699-0.226-1.331-0.725-1.894-1.266
					C438.12,453.114,437.422,452.471,436.878,451.745z"/>
			</g>
			<g>
				<path style="fill:#8F8FD1;" d="M455.294,414.042c0.266,0.65,0.283,1.365,0.211,2.054c-0.143,1.384-0.631,2.731-1.413,3.904
					c1.654,0.253,3.337,0.316,5.001,0.186c-0.701-1.428-0.953-3.028-0.838-4.587c0.071-0.954,0.319-1.97,1.087-2.59
					c-0.295,0.235-2.154-0.124-2.584-0.149c-0.543-0.031-1.982-0.349-2.348,0.035C454.784,413.231,455.106,413.582,455.294,414.042z
					"/>
				<path style="fill:#7C7CC1;" d="M458.62,411.271c0.797,0.114,1.555,0.333,2.159,0.719c1.099,0.703,0.731,1.622-0.383,2.048
					c-1.885,0.72-4.232,0.413-6.255,0.162c-1.839-0.228-1.901-1.846-0.511-2.557c0.654-0.334,1.454-0.428,2.234-0.444
					C456.773,411.18,457.722,411.142,458.62,411.271z"/>
			</g>
			<g>
				<path style="fill:#8F8FD1;" d="M456.969,457.979c-0.266-0.65-0.283-1.365-0.211-2.054c0.143-1.384,0.63-2.731,1.413-3.904
					c-1.654-0.253-3.337-0.315-5.001-0.186c0.701,1.428,0.953,3.028,0.838,4.587c-0.071,0.954-0.319,1.97-1.087,2.59
					c0.295-0.235,2.154,0.124,2.583,0.149c0.543,0.031,1.982,0.349,2.348-0.035C457.478,458.79,457.157,458.439,456.969,457.979z"/>
				<path style="fill:#7C7CC1;" d="M453.643,460.75c-0.797-0.114-1.555-0.333-2.159-0.719c-1.099-0.703-0.731-1.622,0.383-2.048
					c1.885-0.72,4.232-0.413,6.255-0.162c1.839,0.228,1.901,1.846,0.511,2.557c-0.654,0.334-1.454,0.428-2.234,0.444
					C455.489,460.841,454.541,460.879,453.643,460.75z"/>
			</g>
			<g>
				<path style="fill:#8F8FD1;" d="M434.163,436.848c0.65-0.266,1.365-0.283,2.054-0.211c1.384,0.143,2.731,0.63,3.904,1.413
					c0.253-1.654,0.315-3.337,0.186-5.001c-1.428,0.701-3.028,0.953-4.587,0.838c-0.954-0.071-1.97-0.319-2.59-1.087
					c0.235,0.295-0.124,2.154-0.149,2.583c-0.031,0.543-0.349,1.982,0.035,2.348C433.352,437.357,433.703,437.036,434.163,436.848z"
					/>
				<path style="fill:#7C7CC1;" d="M431.391,433.522c0.114-0.797,0.333-1.555,0.719-2.159c0.703-1.099,1.622-0.731,2.048,0.383
					c0.72,1.885,0.413,4.232,0.162,6.256c-0.228,1.839-1.846,1.901-2.557,0.511c-0.334-0.654-0.428-1.454-0.444-2.234
					C431.301,435.368,431.263,434.42,431.391,433.522z"/>
			</g>
			<g>
				<path style="fill:#8F8FD1;" d="M478.1,435.173c-0.65,0.266-1.365,0.283-2.054,0.211c-1.384-0.143-2.731-0.63-3.904-1.413
					c-0.253,1.653-0.315,3.337-0.186,5.001c1.428-0.701,3.028-0.953,4.587-0.838c0.954,0.071,1.97,0.319,2.59,1.087
					c-0.235-0.295,0.124-2.154,0.149-2.584c0.031-0.543,0.349-1.982-0.035-2.348C478.911,434.664,478.56,434.985,478.1,435.173z"/>
				<path style="fill:#7C7CC1;" d="M480.871,438.499c-0.114,0.797-0.333,1.555-0.719,2.159c-0.703,1.099-1.622,0.731-2.048-0.383
					c-0.72-1.885-0.413-4.232-0.162-6.255c0.228-1.839,1.846-1.901,2.557-0.511c0.334,0.654,0.428,1.454,0.444,2.234
					C480.962,436.652,481,437.601,480.871,438.499z"/>
			</g>
			<g>
				<path style="fill:#8F8FD1;" d="M472.257,450.952c-0.648-0.272-1.165-0.766-1.602-1.303c-0.878-1.08-1.485-2.377-1.761-3.76
					c-1.348,0.991-2.583,2.137-3.668,3.405c1.506,0.514,2.815,1.467,3.836,2.651c0.624,0.725,1.167,1.619,1.063,2.6
					c0.042-0.375,1.611-1.435,1.932-1.721c0.406-0.362,1.649-1.154,1.635-1.685C473.191,451.165,472.716,451.145,472.257,450.952z"
					/>
				<path style="fill:#7C7CC1;" d="M471.865,455.264c-0.645,0.483-1.335,0.864-2.035,1.018c-1.274,0.28-1.664-0.63-1.177-1.719
					c0.824-1.842,2.701-3.284,4.309-4.538c1.462-1.139,2.649-0.039,2.169,1.447c-0.226,0.699-0.725,1.331-1.266,1.894
					C473.235,454.022,472.592,454.72,471.865,455.264z"/>
			</g>
			<g>
				<path style="fill:#8F8FD1;" d="M473.072,432.362c1.64,7.577-2.701,16.463-9.633,19.998c-1.439,0.734-2.967,1.164-4.532,1.335
					c-5.304,0.579-11.001-1.846-14.937-5.66c-6.171-5.983-6.559-15.401-2.433-22.068c1.029-1.666,2.342-3.159,3.918-4.384
					c1.926-1.503,4.245-2.601,6.921-3.122C461.332,416.719,471.171,423.581,473.072,432.362z"/>
				<g>
					<path style="fill:#7C7CC1;" d="M444.813,437.724c-2.799,1.695-1.435,6.171,0.978,7.545c0.629,0.358,1.314,0.644,2.063,0.499
						c0.465-0.09,0.98-0.284,1.379-0.594c0.564-0.31,1.03-0.813,1.325-1.472c0.667-1.496-0.049-3.175-0.911-4.418
						C448.547,437.699,446.673,436.598,444.813,437.724z"/>
					<path style="fill:#7C7CC1;" d="M449.207,428.441c-0.507-0.339-1.039-0.55-1.645-0.628c-1.06-0.136-2.176,0.403-2.804,1.249
						c-0.914,1.233-0.753,2.91,0.202,4.063c0.725,0.876,1.857,1.393,2.967,1.541c0.862,0.115,1.743-0.101,2.424-0.654
						c1.039-0.845,1.387-2.289,0.861-3.516C450.836,429.62,450.061,428.895,449.207,428.441z"/>
					<path style="fill:#7C7CC1;" d="M456.196,436.121c-0.006-0.007-0.011-0.015-0.017-0.022c-0.013-0.015-0.028-0.027-0.041-0.042
						c-0.016-0.016-0.031-0.033-0.048-0.049c-0.254-0.264-0.552-0.475-0.89-0.621c-0.283-0.119-0.573-0.163-0.872-0.132
						c-0.302-0.019-0.594,0.038-0.873,0.171c-0.441,0.229-0.715,0.405-1.005,0.817c-0.237,0.337-0.385,0.728-0.431,1.138
						c-0.095,0.852,0.284,1.711,0.975,2.215c0.673,0.491,1.585,0.593,2.352,0.269c0.626-0.264,1.065-0.749,1.325-1.369
						c0.117-0.279,0.161-0.567,0.13-0.862c0.019-0.299-0.037-0.587-0.169-0.863C456.519,436.539,456.372,436.316,456.196,436.121z"
						/>
					<path style="fill:#7C7CC1;" d="M461.102,425.647c-0.948-1.057-2.274-1.843-3.747-1.618c-1.959,0.298-3.246,2.229-2.701,4.134
						c0.293,1.024,1.022,1.766,1.841,2.409c0.629,0.763,1.787,1.071,2.732,0.944c0.905-0.121,1.738-0.632,2.258-1.381
						C462.45,428.746,462.202,426.873,461.102,425.647z"/>
					<path style="fill:#7C7CC1;" d="M466.105,431.427c-0.937-0.224-1.933-0.033-2.696,0.581c-0.746,0.6-1.047,1.425-1.244,2.32
						c-0.07,0.315-0.092,0.641-0.08,0.966c-0.052,1.365,0.528,2.712,1.849,3.423c0.503,0.271,1.028,0.386,1.565,0.366
						c0.171,0.001,0.344-0.008,0.523-0.037c1.227-0.196,2.232-1.139,2.519-2.337c0-0.002,0.001-0.003,0.001-0.005
						c0.241-0.733,0.318-1.613,0.161-2.347c-0.138-0.645-0.346-1.242-0.764-1.765C467.469,432.001,466.833,431.601,466.105,431.427z
						"/>
					<path style="fill:#7C7CC1;" d="M458.398,445.03c-0.313-0.234-0.679-0.424-1.031-0.582c-0.679-0.305-1.471-0.421-2.204-0.3
						c-1.611,0.267-2.835,1.844-2.572,3.485c0.147,0.915,0.629,1.756,1.403,2.285c0.467,0.319,1.013,0.515,1.575,0.581
						c0.176,0.021,0.354,0.014,0.53,0.035c0.592,0.071,1.182-0.031,1.7-0.277c0.307-0.106,0.594-0.259,0.857-0.469
						c0.719-0.579,1.279-1.704,1.033-2.648c-0.144-0.554-0.263-0.991-0.63-1.465C458.871,445.432,458.648,445.216,458.398,445.03z"
						/>
					<path style="fill:#7C7CC1;" d="M465.756,441.239c-0.427-0.046-1.014,0.011-1.394,0.231c-0.337,0.132-0.615,0.337-0.836,0.613
						c-0.259,0.229-0.446,0.511-0.559,0.846c-0.051,0.215-0.103,0.431-0.155,0.646c-0.047,0.454,0.019,0.891,0.199,1.311
						c0.152,0.429,0.578,0.959,0.966,1.199c0.356,0.254,0.752,0.405,1.186,0.454c0.373,0.039,0.733-0.007,1.082-0.128
						c0.242-0.058,0.464-0.161,0.666-0.31c0.211-0.093,0.384-0.232,0.519-0.418c0.25-0.221,0.43-0.493,0.539-0.816
						c0.149-0.518,0.221-0.793,0.147-1.333c-0.067-0.487-0.248-0.926-0.558-1.311C467.119,441.675,466.454,441.314,465.756,441.239z
						"/>
					<path style="fill:#7C7CC1;" d="M449.931,422.675c-1.671,1.345,0.417,3.944,2.091,2.596
						C453.693,423.926,451.605,421.327,449.931,422.675z"/>
					<path style="fill:#7C7CC1;" d="M466.497,425.07c-0.61-0.04-1.205,0.104-1.691,0.496c-0.46,0.37-0.781,0.959-0.845,1.546
						c-0.044,0.303-0.013,0.595,0.094,0.876c0.06,0.304,0.194,0.576,0.402,0.815c0.394,0.447,0.934,0.805,1.546,0.845
						c0.61,0.04,1.205-0.104,1.691-0.496c0.46-0.37,0.782-0.959,0.845-1.546c0.044-0.303,0.013-0.595-0.094-0.875
						c-0.06-0.304-0.194-0.576-0.402-0.815C467.649,425.468,467.109,425.109,466.497,425.07z"/>
				</g>
				<path style="opacity:0.32;fill:#7C7CC1;" d="M473.072,432.362c1.64,7.577-2.701,16.463-9.633,19.998
					c-1.439,0.734-2.967,1.164-4.532,1.335c2.293-2.463,4.271-5.213,5.094-8.439c0.391-1.524,0.51-3.106,0.462-4.677
					c-0.104-3.54-1.051-7.054-2.734-10.168c-2.207-4.073-5.842-7.533-10.318-8.726c-1.925-0.516-4-0.547-5.956-0.101
					c1.926-1.503,4.245-2.601,6.921-3.122C461.332,416.719,471.171,423.581,473.072,432.362z"/>
			</g>
			<g>
				<path style="fill:#8F8FD1;" d="M440.005,421.069c0.648,0.272,1.165,0.766,1.602,1.303c0.878,1.08,1.485,2.377,1.761,3.76
					c1.348-0.991,2.583-2.137,3.668-3.405c-1.506-0.514-2.815-1.467-3.836-2.651c-0.625-0.725-1.167-1.619-1.063-2.6
					c-0.042,0.375-1.611,1.435-1.932,1.721c-0.406,0.362-1.649,1.154-1.635,1.685C439.071,420.855,439.547,420.876,440.005,421.069z
					"/>
				<path style="fill:#7C7CC1;" d="M440.397,416.757c0.645-0.483,1.335-0.864,2.035-1.018c1.274-0.28,1.664,0.63,1.177,1.719
					c-0.824,1.842-2.701,3.284-4.309,4.538c-1.462,1.139-2.649,0.039-2.169-1.447c0.226-0.699,0.725-1.331,1.266-1.894
					C439.027,417.999,439.671,417.301,440.397,416.757z"/>
			</g>
		</g>
		<g>
			<g>
				<path style="fill:#8F8FD1;" d="M204.931,25.69c-0.272,0.648-0.766,1.165-1.303,1.602c-1.08,0.878-2.377,1.485-3.76,1.761
					c0.991,1.348,2.137,2.583,3.405,3.668c0.514-1.506,1.467-2.815,2.651-3.836c0.725-0.625,1.618-1.167,2.6-1.063
					c-0.375-0.042-1.435-1.611-1.721-1.932c-0.361-0.406-1.154-1.649-1.685-1.635C205.145,24.756,205.124,25.231,204.931,25.69z"/>
				<path style="fill:#7C7CC1;" d="M209.243,26.082c0.483,0.645,0.864,1.335,1.018,2.035c0.28,1.274-0.63,1.664-1.719,1.177
					c-1.842-0.824-3.284-2.701-4.538-4.309c-1.139-1.462-0.039-2.649,1.447-2.169c0.699,0.226,1.331,0.725,1.894,1.266
					C208.001,24.712,208.699,25.356,209.243,26.082z"/>
			</g>
			<g>
				<path style="fill:#8F8FD1;" d="M175.048,57.942c0.272-0.648,0.766-1.165,1.303-1.602c1.079-0.878,2.377-1.485,3.76-1.761
					c-0.991-1.348-2.137-2.583-3.405-3.668c-0.514,1.506-1.467,2.815-2.651,3.836c-0.725,0.625-1.619,1.167-2.6,1.063
					c0.375,0.042,1.435,1.611,1.721,1.932c0.361,0.406,1.154,1.649,1.685,1.635C174.834,58.876,174.855,58.401,175.048,57.942z"/>
				<path style="fill:#7C7CC1;" d="M170.736,57.55c-0.483-0.645-0.864-1.335-1.018-2.035c-0.28-1.274,0.63-1.664,1.719-1.177
					c1.842,0.824,3.284,2.701,4.538,4.309c1.139,1.462,0.039,2.649-1.447,2.169c-0.699-0.226-1.331-0.725-1.894-1.266
					C171.978,58.92,171.28,58.276,170.736,57.55z"/>
			</g>
			<g>
				<path style="fill:#8F8FD1;" d="M189.152,19.847c0.266,0.65,0.283,1.365,0.211,2.054c-0.143,1.384-0.63,2.731-1.413,3.904
					c1.654,0.253,3.337,0.315,5.001,0.186c-0.701-1.429-0.953-3.028-0.838-4.587c0.071-0.954,0.319-1.97,1.087-2.59
					c-0.295,0.235-2.154-0.124-2.584-0.149c-0.542-0.031-1.982-0.349-2.348,0.035C188.642,19.037,188.964,19.387,189.152,19.847z"/>
				<path style="fill:#7C7CC1;" d="M192.478,17.076c0.797,0.114,1.555,0.333,2.159,0.719c1.099,0.703,0.731,1.622-0.383,2.048
					c-1.885,0.72-4.232,0.413-6.255,0.162c-1.839-0.228-1.901-1.846-0.511-2.557c0.654-0.334,1.454-0.428,2.234-0.444
					C190.631,16.985,191.58,16.947,192.478,17.076z"/>
			</g>
			<g>
				<path style="fill:#8F8FD1;" d="M190.827,63.784c-0.266-0.65-0.283-1.365-0.211-2.054c0.143-1.384,0.631-2.731,1.413-3.904
					c-1.654-0.253-3.337-0.316-5.001-0.187c0.701,1.428,0.953,3.028,0.838,4.587c-0.071,0.954-0.319,1.97-1.087,2.59
					c0.295-0.235,2.154,0.124,2.583,0.149c0.543,0.031,1.982,0.349,2.348-0.035C191.336,64.595,191.015,64.245,190.827,63.784z"/>
				<path style="fill:#7C7CC1;" d="M187.501,66.556c-0.797-0.114-1.555-0.333-2.159-0.719c-1.099-0.703-0.731-1.622,0.383-2.048
					c1.885-0.72,4.232-0.413,6.256-0.162c1.839,0.228,1.901,1.846,0.511,2.557c-0.654,0.334-1.454,0.428-2.234,0.444
					C189.347,66.646,188.399,66.685,187.501,66.556z"/>
			</g>
			<g>
				<path style="fill:#8F8FD1;" d="M168.021,42.653c0.65-0.266,1.365-0.282,2.054-0.211c1.384,0.143,2.731,0.631,3.904,1.413
					c0.253-1.654,0.316-3.337,0.186-5.001c-1.428,0.701-3.028,0.953-4.587,0.838c-0.954-0.071-1.97-0.319-2.59-1.087
					c0.235,0.295-0.124,2.154-0.149,2.583c-0.031,0.543-0.349,1.982,0.035,2.348C167.21,43.163,167.561,42.841,168.021,42.653z"/>
				<path style="fill:#7C7CC1;" d="M165.25,39.327c0.114-0.797,0.333-1.555,0.719-2.159c0.703-1.099,1.622-0.731,2.048,0.383
					c0.72,1.885,0.413,4.232,0.162,6.256c-0.228,1.839-1.846,1.901-2.557,0.511c-0.334-0.654-0.428-1.454-0.444-2.234
					C165.159,41.174,165.121,40.226,165.25,39.327z"/>
			</g>
			<g>
				<path style="fill:#8F8FD1;" d="M211.958,40.979c-0.65,0.266-1.365,0.283-2.054,0.211c-1.384-0.143-2.731-0.63-3.904-1.413
					c-0.253,1.654-0.315,3.337-0.186,5.001c1.428-0.701,3.028-0.953,4.587-0.838c0.954,0.071,1.97,0.319,2.59,1.087
					c-0.235-0.295,0.124-2.154,0.149-2.583c0.031-0.543,0.349-1.982-0.035-2.348C212.769,40.469,212.418,40.791,211.958,40.979z"/>
				<path style="fill:#7C7CC1;" d="M214.729,44.304c-0.114,0.797-0.333,1.555-0.719,2.159c-0.703,1.099-1.622,0.731-2.048-0.383
					c-0.72-1.885-0.413-4.232-0.162-6.255c0.228-1.839,1.846-1.901,2.557-0.511c0.334,0.654,0.428,1.454,0.444,2.234
					C214.82,42.458,214.858,43.406,214.729,44.304z"/>
			</g>
			<g>
				<path style="fill:#8F8FD1;" d="M206.115,56.758c-0.648-0.272-1.165-0.766-1.602-1.303c-0.878-1.08-1.485-2.377-1.761-3.76
					c-1.348,0.991-2.583,2.137-3.668,3.405c1.506,0.514,2.816,1.467,3.836,2.651c0.624,0.725,1.167,1.619,1.063,2.6
					c0.042-0.375,1.611-1.435,1.932-1.721c0.406-0.361,1.649-1.154,1.635-1.685C207.049,56.971,206.574,56.95,206.115,56.758z"/>
				<path style="fill:#7C7CC1;" d="M205.724,61.069c-0.645,0.483-1.335,0.864-2.035,1.018c-1.274,0.28-1.664-0.63-1.177-1.719
					c0.824-1.842,2.701-3.285,4.309-4.538c1.462-1.139,2.649-0.039,2.169,1.447c-0.226,0.699-0.725,1.331-1.266,1.894
					C207.093,59.828,206.45,60.525,205.724,61.069z"/>
			</g>
			<g>
				<path style="fill:#8F8FD1;" d="M206.93,38.168c1.64,7.577-2.701,16.463-9.633,19.999c-1.439,0.734-2.967,1.164-4.532,1.334
					c-5.304,0.579-11.001-1.846-14.937-5.66c-6.171-5.983-6.559-15.401-2.433-22.068c1.029-1.666,2.342-3.159,3.918-4.384
					c1.926-1.503,4.245-2.601,6.921-3.122C195.19,22.525,205.029,29.387,206.93,38.168z"/>
				<g>
					<path style="fill:#7C7CC1;" d="M178.671,43.53c-2.799,1.695-1.435,6.171,0.978,7.545c0.629,0.358,1.313,0.644,2.063,0.499
						c0.465-0.09,0.98-0.284,1.379-0.594c0.564-0.31,1.03-0.813,1.325-1.472c0.667-1.496-0.049-3.175-0.911-4.418
						C182.405,43.504,180.531,42.404,178.671,43.53z"/>
					<path style="fill:#7C7CC1;" d="M183.065,34.247c-0.507-0.339-1.039-0.55-1.646-0.628c-1.06-0.136-2.176,0.403-2.804,1.249
						c-0.914,1.233-0.753,2.91,0.202,4.063c0.725,0.876,1.857,1.393,2.967,1.541c0.862,0.115,1.743-0.101,2.424-0.654
						c1.039-0.845,1.387-2.289,0.861-3.516C184.694,35.425,183.919,34.701,183.065,34.247z"/>
					<path style="fill:#7C7CC1;" d="M190.054,41.926c-0.006-0.007-0.011-0.015-0.017-0.022c-0.013-0.015-0.028-0.028-0.041-0.042
						c-0.016-0.016-0.031-0.033-0.048-0.049c-0.255-0.264-0.551-0.476-0.89-0.621c-0.283-0.119-0.573-0.163-0.872-0.132
						c-0.303-0.019-0.594,0.038-0.873,0.171c-0.441,0.229-0.714,0.405-1.005,0.817c-0.237,0.337-0.385,0.728-0.431,1.138
						c-0.095,0.852,0.284,1.71,0.975,2.215c0.673,0.491,1.585,0.593,2.352,0.269c0.626-0.264,1.066-0.749,1.325-1.369
						c0.118-0.279,0.161-0.567,0.13-0.862c0.019-0.299-0.037-0.587-0.169-0.863C190.377,42.344,190.23,42.122,190.054,41.926z"/>
					<path style="fill:#7C7CC1;" d="M194.96,31.452c-0.948-1.057-2.274-1.843-3.747-1.618c-1.959,0.298-3.246,2.229-2.701,4.133
						c0.293,1.024,1.022,1.766,1.841,2.409c0.629,0.763,1.787,1.071,2.732,0.944c0.905-0.121,1.738-0.632,2.258-1.381
						C196.308,34.551,196.06,32.679,194.96,31.452z"/>
					<path style="fill:#7C7CC1;" d="M199.964,37.232c-0.937-0.224-1.933-0.033-2.696,0.581c-0.746,0.601-1.047,1.425-1.245,2.32
						c-0.07,0.315-0.092,0.641-0.08,0.966c-0.052,1.365,0.527,2.712,1.849,3.423c0.503,0.271,1.028,0.386,1.565,0.366
						c0.171,0.001,0.344-0.008,0.523-0.037c1.227-0.196,2.232-1.139,2.519-2.337c0-0.002,0.001-0.003,0.001-0.005
						c0.241-0.733,0.318-1.613,0.161-2.347c-0.138-0.645-0.346-1.242-0.764-1.765C201.327,37.806,200.691,37.407,199.964,37.232z"/>
					<path style="fill:#7C7CC1;" d="M192.257,50.835c-0.313-0.235-0.679-0.424-1.031-0.582c-0.678-0.305-1.471-0.421-2.204-0.3
						c-1.611,0.267-2.835,1.844-2.572,3.485c0.147,0.915,0.629,1.756,1.403,2.285c0.467,0.319,1.013,0.514,1.575,0.581
						c0.176,0.021,0.354,0.014,0.53,0.035c0.592,0.071,1.182-0.031,1.7-0.277c0.307-0.106,0.594-0.259,0.856-0.469
						c0.719-0.579,1.279-1.704,1.033-2.648c-0.144-0.554-0.262-0.991-0.63-1.465C192.729,51.238,192.506,51.022,192.257,50.835z"/>
					<path style="fill:#7C7CC1;" d="M199.614,47.044c-0.427-0.046-1.014,0.011-1.393,0.231c-0.337,0.132-0.615,0.337-0.836,0.613
						c-0.259,0.229-0.446,0.511-0.559,0.846c-0.051,0.215-0.103,0.431-0.155,0.646c-0.047,0.454,0.019,0.891,0.199,1.312
						c0.152,0.429,0.578,0.959,0.966,1.199c0.356,0.254,0.752,0.405,1.186,0.454c0.373,0.039,0.733-0.007,1.082-0.128
						c0.242-0.058,0.464-0.161,0.666-0.31c0.21-0.093,0.383-0.232,0.519-0.418c0.25-0.221,0.43-0.493,0.539-0.816
						c0.149-0.518,0.221-0.793,0.147-1.333c-0.067-0.487-0.248-0.926-0.558-1.311C200.977,47.481,200.312,47.12,199.614,47.044z"/>
					<path style="fill:#7C7CC1;" d="M183.789,28.48c-1.671,1.345,0.417,3.944,2.091,2.596
						C187.551,29.731,185.463,27.133,183.789,28.48z"/>
					<path style="fill:#7C7CC1;" d="M200.355,30.875c-0.61-0.04-1.205,0.104-1.691,0.496c-0.46,0.37-0.782,0.959-0.845,1.546
						c-0.044,0.303-0.013,0.595,0.094,0.875c0.06,0.304,0.194,0.576,0.402,0.815c0.394,0.447,0.934,0.805,1.546,0.845
						c0.61,0.039,1.205-0.105,1.691-0.496c0.46-0.37,0.782-0.959,0.845-1.546c0.044-0.303,0.013-0.595-0.094-0.876
						c-0.06-0.304-0.194-0.576-0.402-0.815C201.507,31.273,200.967,30.915,200.355,30.875z"/>
				</g>
				<path style="opacity:0.32;fill:#7C7CC1;" d="M206.93,38.168c1.64,7.577-2.701,16.463-9.633,19.999
					c-1.439,0.734-2.967,1.164-4.532,1.334c2.293-2.463,4.271-5.213,5.094-8.439c0.391-1.524,0.51-3.106,0.462-4.677
					c-0.104-3.54-1.051-7.054-2.734-10.168c-2.207-4.073-5.842-7.533-10.318-8.726c-1.925-0.516-4-0.547-5.956-0.101
					c1.926-1.503,4.245-2.601,6.921-3.122C195.19,22.525,205.029,29.387,206.93,38.168z"/>
			</g>
			<g>
				<path style="fill:#8F8FD1;" d="M173.863,26.874c0.648,0.272,1.165,0.765,1.602,1.303c0.878,1.08,1.485,2.377,1.761,3.76
					c1.348-0.991,2.583-2.137,3.668-3.405c-1.506-0.514-2.815-1.467-3.836-2.651c-0.625-0.725-1.167-1.618-1.063-2.6
					c-0.042,0.375-1.611,1.435-1.932,1.721c-0.406,0.361-1.649,1.154-1.635,1.685C172.929,26.661,173.405,26.681,173.863,26.874z"/>
				<path style="fill:#7C7CC1;" d="M174.255,22.563c0.645-0.483,1.335-0.864,2.035-1.018c1.274-0.28,1.664,0.63,1.177,1.719
					c-0.824,1.842-2.701,3.284-4.309,4.538c-1.462,1.139-2.649,0.039-2.169-1.447c0.226-0.699,0.725-1.331,1.266-1.894
					C172.886,23.804,173.529,23.107,174.255,22.563z"/>
			</g>
		</g>
		<g>
			<g>
				<g>
					<path style="fill:#8F8FD1;" d="M470.483,225.475c-1.311,0.709-2.815,0.907-4.285,0.913c-2.952,0.014-5.904-0.708-8.556-2.093
						c-0.157,3.545,0.094,7.111,0.745,10.592c2.854-1.804,6.171-2.7,9.485-2.811c2.029-0.068,4.228,0.225,5.712,1.703
						c-0.564-0.569-0.228-4.572-0.274-5.484c-0.057-1.152,0.286-4.26-0.609-4.945C472.078,224.215,471.412,224.973,470.483,225.475z
						"/>
					<path style="fill:#7C7CC1;" d="M477.086,231.86c-0.059,1.708-0.349,3.357-1.025,4.717c-1.233,2.478-3.255,1.912-4.407-0.342
						c-1.948-3.812-1.834-8.833-1.765-13.158c0.063-3.932,3.461-4.429,5.277-1.659c0.854,1.303,1.234,2.969,1.445,4.612
						C476.857,227.944,477.154,229.936,477.086,231.86z"/>
				</g>
				<g>
					<path style="fill:#8F8FD1;" d="M378.186,239.007c1.311-0.709,2.815-0.906,4.285-0.913c2.952-0.014,5.904,0.708,8.556,2.093
						c0.157-3.545-0.094-7.111-0.745-10.592c-2.854,1.804-6.171,2.7-9.485,2.811c-2.028,0.068-4.227-0.225-5.712-1.703
						c0.564,0.569,0.228,4.572,0.274,5.484c0.057,1.152-0.286,4.26,0.609,4.945C376.591,240.266,377.258,239.508,378.186,239.007z"
						/>
					<path style="fill:#7C7CC1;" d="M371.583,232.622c0.06-1.708,0.349-3.357,1.025-4.717c1.233-2.478,3.255-1.912,4.407,0.342
						c1.948,3.812,1.834,8.833,1.765,13.158c-0.063,3.932-3.461,4.43-5.277,1.659c-0.854-1.303-1.234-2.969-1.445-4.612
						C371.812,236.538,371.516,234.546,371.583,232.622z"/>
				</g>
				<g>
					<path style="fill:#8F8FD1;" d="M452.183,194.825c-0.426,1.428-1.35,2.632-2.384,3.676c-2.077,2.097-4.676,3.674-7.53,4.57
						c2.396,2.618,5.095,4.962,8.016,6.963c0.742-3.293,2.454-6.273,4.719-8.695c1.386-1.482,3.148-2.83,5.243-2.834
						c-0.801-0.004-3.394-3.072-4.071-3.684c-0.855-0.774-2.81-3.215-3.927-3.066C452.42,192.806,452.484,193.813,452.183,194.825z"
						/>
					<path style="fill:#7C7CC1;" d="M461.366,194.67c1.166,1.25,2.127,2.62,2.611,4.061c0.881,2.624-0.95,3.653-3.358,2.874
						c-4.073-1.318-7.543-4.949-10.552-8.057c-2.736-2.825-0.685-5.579,2.558-4.904c1.525,0.317,2.972,1.227,4.283,2.239
						C458.435,192.063,460.053,193.262,461.366,194.67z"/>
				</g>
				<g>
					<path style="fill:#8F8FD1;" d="M396.487,269.657c0.426-1.428,1.35-2.632,2.384-3.676c2.078-2.097,4.676-3.674,7.53-4.57
						c-2.396-2.618-5.095-4.962-8.016-6.963c-0.742,3.293-2.454,6.273-4.719,8.695c-1.387,1.482-3.149,2.83-5.243,2.834
						c0.801,0.004,3.394,3.072,4.071,3.684c0.855,0.774,2.81,3.215,3.927,3.066C396.25,271.676,396.185,270.668,396.487,269.657z"/>
					<path style="fill:#7C7CC1;" d="M387.303,269.812c-1.166-1.25-2.127-2.62-2.611-4.061c-0.881-2.624,0.95-3.653,3.358-2.874
						c4.073,1.318,7.543,4.949,10.552,8.057c2.736,2.824,0.685,5.579-2.558,4.904c-1.525-0.318-2.972-1.227-4.283-2.239
						C390.234,272.418,388.616,271.22,387.303,269.812z"/>
				</g>
				<g>
					<path style="fill:#8F8FD1;" d="M386.918,204.393c1.428,0.426,2.632,1.35,3.676,2.384c2.097,2.078,3.674,4.676,4.57,7.53
						c2.618-2.396,4.962-5.095,6.963-8.016c-3.293-0.742-6.273-2.454-8.695-4.719c-1.482-1.387-2.83-3.149-2.834-5.243
						c-0.004,0.801-3.072,3.394-3.684,4.071c-0.774,0.855-3.215,2.81-3.066,3.927C384.9,204.156,385.907,204.091,386.918,204.393z"
						/>
					<path style="fill:#7C7CC1;" d="M386.764,195.209c1.25-1.166,2.62-2.127,4.061-2.611c2.624-0.881,3.653,0.95,2.874,3.358
						c-1.318,4.073-4.949,7.543-8.057,10.552c-2.824,2.736-5.579,0.685-4.904-2.558c0.317-1.525,1.227-2.972,2.239-4.283
						C384.157,198.14,385.356,196.522,386.764,195.209z"/>
				</g>
				<g>
					<path style="fill:#8F8FD1;" d="M461.751,260.089c-1.429-0.426-2.632-1.35-3.676-2.384c-2.097-2.078-3.674-4.676-4.57-7.53
						c-2.618,2.396-4.962,5.095-6.963,8.017c3.293,0.742,6.273,2.454,8.695,4.719c1.482,1.386,2.83,3.148,2.834,5.243
						c0.004-0.801,3.072-3.394,3.684-4.071c0.774-0.855,3.215-2.81,3.066-3.927C463.769,260.326,462.762,260.391,461.751,260.089z"
						/>
					<path style="fill:#7C7CC1;" d="M461.905,269.272c-1.25,1.166-2.62,2.127-4.061,2.611c-2.624,0.881-3.653-0.95-2.874-3.358
						c1.318-4.073,4.949-7.543,8.057-10.552c2.824-2.736,5.579-0.685,4.904,2.558c-0.318,1.525-1.227,2.972-2.239,4.283
						C464.512,266.342,463.313,267.959,461.905,269.272z"/>
				</g>
				<g>
					<path style="fill:#8F8FD1;" d="M431.1,278.39c-0.709-1.312-0.906-2.815-0.913-4.285c-0.014-2.952,0.708-5.904,2.093-8.556
						c-3.545-0.157-7.111,0.094-10.592,0.745c1.804,2.854,2.7,6.171,2.811,9.485c0.068,2.029-0.225,4.228-1.703,5.712
						c0.569-0.564,4.572-0.228,5.484-0.274c1.152-0.057,4.26,0.286,4.945-0.609C432.36,279.984,431.602,279.318,431.1,278.39z"/>
					<path style="fill:#7C7CC1;" d="M424.716,284.993c-1.708-0.06-3.357-0.349-4.717-1.025c-2.478-1.233-1.912-3.255,0.342-4.407
						c3.812-1.948,8.833-1.834,13.158-1.765c3.932,0.063,4.43,3.461,1.659,5.277c-1.303,0.854-2.969,1.234-4.612,1.445
						C428.632,284.763,426.64,285.06,424.716,284.993z"/>
				</g>
				<g>
					<path style="fill:#8F8FD1;" d="M457.183,248.753c-7.372,14.703-26.37,23.61-42.529,20.229
						c-3.355-0.702-6.452-2.025-9.264-3.825c-9.535-6.101-15.723-17.688-17.152-29.228c-2.237-18.098,9.655-34.178,25.344-39.703
						c3.917-1.383,8.073-2.104,12.308-2.032c5.181,0.079,10.475,1.35,15.59,4.05C458.599,207.283,465.725,231.714,457.183,248.753z"
						/>
					<g>
						<path style="fill:#7C7CC1;" d="M403.35,220.012c-6.88-0.925-10.583,8.288-8.423,13.768c0.563,1.429,1.313,2.813,2.744,3.569
							c0.889,0.47,1.996,0.835,3.069,0.854c1.343,0.238,2.784,0.028,4.148-0.67c3.094-1.585,4.143-5.313,4.373-8.513
							C409.555,224.938,407.922,220.627,403.35,220.012z"/>
						<path style="fill:#7C7CC1;" d="M422.964,210.519c-0.387-1.235-0.985-2.291-1.884-3.227c-1.571-1.636-4.132-2.23-6.295-1.666
							c-3.152,0.821-5.115,3.807-5.073,6.983c0.032,2.411,1.215,4.772,2.852,6.494c1.271,1.336,3.015,2.153,4.876,2.144
							c2.842-0.014,5.337-1.937,6.101-4.663C424.087,214.634,423.771,212.406,422.964,210.519z"/>
						<path style="fill:#7C7CC1;" d="M424.295,232.509c-0.001-0.02,0.002-0.039,0.001-0.06c-0.002-0.042-0.01-0.082-0.012-0.124
							c-0.004-0.048-0.009-0.096-0.014-0.144c-0.069-0.775-0.279-1.52-0.644-2.211c-0.309-0.572-0.73-1.032-1.265-1.378
							c-0.474-0.434-1.031-0.727-1.671-0.879c-1.034-0.208-1.72-0.281-2.749,0.013c-0.841,0.24-1.606,0.69-2.227,1.307
							c-1.291,1.282-1.807,3.204-1.335,4.957c0.46,1.707,1.829,3.089,3.529,3.575c1.386,0.396,2.757,0.18,4.011-0.499
							c0.566-0.305,1.02-0.722,1.363-1.251c0.429-0.469,0.719-1.02,0.869-1.651C424.272,233.629,424.325,233.066,424.295,232.509z"
							/>
						<path style="fill:#7C7CC1;" d="M446.338,221.729c-0.16-3.009-1.306-6.07-4.038-7.66c-3.634-2.114-8.329-0.636-9.963,3.237
							c-0.879,2.082-0.662,4.279-0.164,6.43c0.023,2.098,1.527,4.147,3.258,5.195c1.657,1.004,3.712,1.268,5.569,0.723
							C444.442,228.644,446.524,225.219,446.338,221.729z"/>
						<path style="fill:#7C7CC1;" d="M446.915,237.938c-1.25-1.617-3.151-2.628-5.227-2.628c-2.032,0-3.626,0.962-5.143,2.178
							c-0.535,0.428-1.005,0.936-1.418,1.49c-1.902,2.188-2.737,5.183-1.499,8.116c0.471,1.116,1.186,2.006,2.1,2.687
							c0.28,0.229,0.58,0.444,0.913,0.635c2.288,1.308,5.203,1.087,7.272-0.511c0.003-0.002,0.006-0.005,0.009-0.007
							c1.374-0.891,2.672-2.242,3.389-3.663c0.63-1.249,1.08-2.513,1.087-3.932C448.405,240.701,447.886,239.195,446.915,237.938z"
							/>
						<path style="fill:#7C7CC1;" d="M416.079,250.162c-0.206-0.805-0.559-1.604-0.929-2.333c-0.716-1.406-1.871-2.653-3.243-3.427
							c-3.017-1.703-7.138-0.726-8.888,2.336c-0.975,1.707-1.298,3.739-0.722,5.644c0.348,1.15,0.989,2.198,1.83,3.055
							c0.264,0.269,0.566,0.494,0.829,0.764c0.884,0.906,1.994,1.522,3.177,1.805c0.649,0.233,1.327,0.363,2.039,0.365
							c1.957,0,4.382-1.114,5.23-3c0.498-1.107,0.885-1.987,0.909-3.26C416.324,251.455,416.243,250.802,416.079,250.162z"/>
						<path style="fill:#7C7CC1;" d="M433.282,253.687c-0.644-0.644-1.691-1.331-2.61-1.472c-0.732-0.23-1.465-0.262-2.197-0.098
							c-0.733,0.033-1.416,0.251-2.049,0.654c-0.372,0.287-0.743,0.574-1.115,0.862c-0.683,0.688-1.155,1.498-1.417,2.431
							c-0.32,0.911-0.321,2.354,0.001,3.266c0.251,0.894,0.703,1.67,1.357,2.328c0.565,0.561,1.221,0.964,1.959,1.228
							c0.477,0.225,0.981,0.35,1.513,0.374c0.471,0.127,0.943,0.127,1.414,0c0.708-0.032,1.367-0.242,1.978-0.631
							c0.936-0.657,1.42-1.016,2.018-2.008c0.538-0.894,0.822-1.86,0.822-2.909C434.954,256.222,434.335,254.74,433.282,253.687z"/>
						<path style="fill:#7C7CC1;" d="M431.834,201.954c-4.551,0-4.558,7.072,0,7.072
							C436.385,209.026,436.392,201.954,431.834,201.954z"/>
						<path style="fill:#7C7CC1;" d="M456.021,227.954c-0.955-0.877-2.13-1.43-3.453-1.43c-1.252,0-2.568,0.545-3.453,1.43
							c-0.476,0.442-0.813,0.966-1.01,1.572c-0.306,0.582-0.446,1.209-0.421,1.882c0.057,1.263,0.471,2.573,1.43,3.453
							c0.955,0.877,2.13,1.43,3.453,1.43c1.252,0,2.568-0.545,3.453-1.43c0.476-0.442,0.813-0.966,1.01-1.572
							c0.306-0.582,0.446-1.209,0.421-1.882C457.395,230.144,456.98,228.835,456.021,227.954z"/>
					</g>
					<path style="opacity:0.32;fill:#7C7CC1;" d="M457.183,248.753c-7.372,14.703-26.37,23.61-42.529,20.229
						c-3.355-0.702-6.452-2.025-9.264-3.825c7.067-1.019,13.995-2.931,19.647-7.167c2.673-1.998,4.976-4.453,6.988-7.114
						c4.539-5.988,7.65-13.056,9.013-20.44c1.773-9.668,0.37-20.222-5.439-28.15c-2.495-3.414-5.883-6.227-9.708-8.093
						c5.181,0.079,10.475,1.35,15.59,4.05C458.599,207.283,465.725,231.714,457.183,248.753z"/>
				</g>
				<g>
					<path style="fill:#8F8FD1;" d="M417.569,186.092c0.709,1.312,0.907,2.815,0.913,4.285c0.014,2.952-0.708,5.904-2.093,8.556
						c3.546,0.157,7.111-0.094,10.592-0.745c-1.804-2.854-2.7-6.171-2.811-9.485c-0.068-2.028,0.225-4.227,1.703-5.712
						c-0.569,0.564-4.572,0.228-5.484,0.274c-1.152,0.057-4.26-0.286-4.945,0.609C416.309,184.497,417.067,185.164,417.569,186.092z
						"/>
					<path style="fill:#7C7CC1;" d="M423.953,179.489c1.708,0.06,3.357,0.349,4.717,1.025c2.478,1.233,1.912,3.255-0.342,4.407
						c-3.812,1.948-8.833,1.834-13.158,1.765c-3.932-0.063-4.43-3.461-1.659-5.277c1.303-0.854,2.969-1.234,4.612-1.445
						C420.038,179.718,422.029,179.422,423.953,179.489z"/>
				</g>
			</g>
			<path style="opacity:0.35;fill:#FFFFFF;" d="M470.176,194.253c-21.282-24.833-58.66-27.711-83.493-6.428
				c-24.833,21.282-27.711,58.66-6.428,83.493c21.282,24.833,58.66,27.711,83.493,6.428
				C488.58,256.463,491.458,219.085,470.176,194.253z M394.94,197.458c17.736-15.2,43.62-14.709,60.742,0.164l-69.879,59.888
				C373.727,238.313,377.204,212.659,394.94,197.458z M394.748,267.947l69.879-59.888c12.076,19.197,8.599,44.851-9.137,60.052
				C437.754,283.311,411.87,282.82,394.748,267.947z"/>
		</g>
		<g>
			<g>
				<g>
					<path style="fill:#7878C1;" d="M73.657,412.918c-0.373,0.888-1.049,1.596-1.785,2.195c-1.479,1.202-3.257,2.035-5.151,2.413
						c1.357,1.847,2.927,3.539,4.664,5.026c0.705-2.063,2.01-3.857,3.632-5.255c0.993-0.856,2.218-1.599,3.563-1.456
						c-0.514-0.058-1.966-2.207-2.358-2.647c-0.495-0.556-1.582-2.259-2.309-2.24C73.949,411.638,73.921,412.289,73.657,412.918z"/>
					<path style="fill:#6464A0;" d="M79.564,413.455c0.662,0.883,1.184,1.829,1.395,2.788c0.384,1.745-0.863,2.28-2.355,1.612
						c-2.524-1.128-4.5-3.7-6.217-5.904c-1.561-2.003-0.053-3.63,1.982-2.971c0.957,0.31,1.823,0.993,2.595,1.734
						C77.863,411.578,78.818,412.46,79.564,413.455z"/>
				</g>
				<g>
					<path style="fill:#7878C1;" d="M32.715,457.105c0.373-0.888,1.049-1.596,1.785-2.195c1.479-1.202,3.257-2.035,5.151-2.413
						c-1.357-1.847-2.928-3.539-4.665-5.026c-0.705,2.063-2.01,3.857-3.632,5.255c-0.993,0.856-2.218,1.599-3.563,1.457
						c0.514,0.058,1.966,2.207,2.358,2.647c0.495,0.556,1.581,2.259,2.309,2.241C32.423,458.384,32.451,457.733,32.715,457.105z"/>
					<path style="fill:#6464A0;" d="M26.808,456.568c-0.662-0.883-1.184-1.829-1.395-2.788c-0.384-1.746,0.863-2.28,2.355-1.613
						c2.524,1.128,4.5,3.7,6.217,5.904c1.561,2.003,0.053,3.63-1.982,2.971c-0.957-0.309-1.823-0.993-2.595-1.734
						C28.509,458.444,27.553,457.563,26.808,456.568z"/>
				</g>
				<g>
					<path style="fill:#7878C1;" d="M52.039,404.914c0.364,0.891,0.387,1.87,0.29,2.814c-0.196,1.896-0.864,3.742-1.936,5.348
						c2.265,0.346,4.572,0.432,6.852,0.255c-0.96-1.957-1.306-4.149-1.148-6.285c0.097-1.307,0.438-2.699,1.489-3.549
						c-0.405,0.323-2.951-0.17-3.54-0.204c-0.743-0.043-2.715-0.479-3.217,0.048C51.34,403.802,51.781,404.283,52.039,404.914z"/>
					<path style="fill:#6464A0;" d="M56.595,401.116c1.093,0.156,2.131,0.456,2.958,0.985c1.506,0.963,1.002,2.222-0.525,2.806
						c-2.582,0.987-5.798,0.565-8.57,0.221c-2.52-0.313-2.604-2.529-0.7-3.503c0.896-0.458,1.992-0.587,3.061-0.608
						C54.065,400.992,55.364,400.94,56.595,401.116z"/>
				</g>
				<g>
					<path style="fill:#7878C1;" d="M54.333,465.109c-0.364-0.891-0.387-1.87-0.29-2.814c0.196-1.896,0.864-3.742,1.936-5.348
						c-2.265-0.346-4.572-0.432-6.852-0.255c0.96,1.957,1.306,4.149,1.148,6.285c-0.097,1.307-0.438,2.699-1.489,3.549
						c0.405-0.323,2.951,0.17,3.54,0.204c0.743,0.043,2.715,0.479,3.217-0.048C55.031,466.22,54.591,465.74,54.333,465.109z"/>
					<path style="fill:#6464A0;" d="M49.776,468.906c-1.092-0.157-2.131-0.456-2.958-0.985c-1.505-0.963-1.002-2.222,0.525-2.806
						c2.583-0.987,5.798-0.565,8.57-0.221c2.52,0.313,2.604,2.529,0.7,3.503c-0.896,0.458-1.992,0.586-3.061,0.608
						C52.306,469.03,51.007,469.082,49.776,468.906z"/>
				</g>
				<g>
					<path style="fill:#7878C1;" d="M23.088,436.158c0.891-0.364,1.87-0.387,2.814-0.29c1.896,0.196,3.742,0.864,5.348,1.936
						c0.346-2.266,0.432-4.572,0.255-6.852c-1.957,0.96-4.149,1.306-6.285,1.148c-1.307-0.097-2.699-0.438-3.549-1.489
						c0.323,0.405-0.17,2.951-0.204,3.54c-0.043,0.743-0.479,2.715,0.049,3.217C21.977,436.857,22.457,436.416,23.088,436.158z"/>
					<path style="fill:#6464A0;" d="M19.291,431.602c0.157-1.092,0.456-2.131,0.985-2.958c0.963-1.506,2.222-1.002,2.806,0.525
						c0.987,2.582,0.565,5.798,0.221,8.57c-0.313,2.52-2.529,2.604-3.503,0.7c-0.458-0.896-0.587-1.992-0.608-3.061
						C19.167,434.132,19.115,432.832,19.291,431.602z"/>
				</g>
				<g>
					<path style="fill:#7878C1;" d="M83.283,433.864c-0.891,0.364-1.87,0.387-2.814,0.289c-1.896-0.196-3.742-0.864-5.348-1.936
						c-0.346,2.266-0.432,4.572-0.255,6.852c1.957-0.96,4.149-1.306,6.285-1.148c1.307,0.097,2.699,0.438,3.549,1.489
						c-0.323-0.405,0.17-2.951,0.204-3.54c0.043-0.743,0.479-2.715-0.049-3.217C84.395,433.166,83.914,433.606,83.283,433.864z"/>
					<path style="fill:#6464A0;" d="M87.081,438.421c-0.157,1.092-0.456,2.131-0.985,2.958c-0.963,1.505-2.222,1.002-2.805-0.525
						c-0.987-2.583-0.565-5.798-0.221-8.57c0.313-2.52,2.529-2.604,3.503-0.699c0.458,0.896,0.587,1.992,0.608,3.061
						C87.205,435.891,87.257,437.19,87.081,438.421z"/>
				</g>
				<g>
					<path style="fill:#7878C1;" d="M75.279,455.483c-0.888-0.373-1.596-1.049-2.195-1.785c-1.202-1.479-2.035-3.257-2.413-5.151
						c-1.847,1.357-3.539,2.927-5.026,4.664c2.063,0.705,3.857,2.01,5.255,3.632c0.856,0.993,1.599,2.217,1.456,3.563
						c0.058-0.514,2.207-1.967,2.647-2.358c0.556-0.495,2.259-1.582,2.24-2.309C76.559,455.774,75.907,455.746,75.279,455.483z"/>
					<path style="fill:#6464A0;" d="M74.742,461.389c-0.883,0.662-1.829,1.184-2.788,1.395c-1.746,0.384-2.28-0.863-1.612-2.355
						c1.128-2.524,3.7-4.5,5.904-6.217c2.003-1.561,3.63-0.053,2.971,1.982c-0.31,0.957-0.993,1.823-1.734,2.595
						C76.619,459.688,75.737,460.644,74.742,461.389z"/>
				</g>
				<path style="fill:#7878C1;" d="M76.395,430.013c2.247,10.381-3.701,22.555-13.198,27.399c-1.971,1.006-4.065,1.595-6.209,1.828
					c-7.267,0.793-15.072-2.529-20.464-7.754c-8.455-8.197-8.986-21.101-3.333-30.234c1.41-2.282,3.208-4.328,5.368-6.007
					c2.638-2.059,5.815-3.564,9.482-4.277C60.311,408.581,73.791,417.983,76.395,430.013z"/>
				<g>
					<path style="fill:#6464A0;" d="M37.678,437.36c-3.835,2.322-1.966,8.455,1.34,10.337c0.862,0.491,1.8,0.883,2.826,0.684
						c0.637-0.124,1.342-0.388,1.89-0.813c0.772-0.424,1.412-1.113,1.815-2.017c0.914-2.05-0.068-4.35-1.248-6.053
						C42.794,437.324,40.227,435.817,37.678,437.36z"/>
					<path style="fill:#6464A0;" d="M43.699,424.641c-0.694-0.464-1.423-0.753-2.254-0.86c-1.452-0.186-2.981,0.552-3.841,1.711
						c-1.253,1.689-1.031,3.987,0.277,5.567c0.993,1.2,2.544,1.908,4.065,2.111c1.18,0.158,2.389-0.139,3.32-0.896
						c1.424-1.158,1.9-3.136,1.18-4.816C45.93,426.256,44.869,425.263,43.699,424.641z"/>
					<path style="fill:#6464A0;" d="M53.274,435.162c-0.008-0.01-0.015-0.021-0.023-0.031c-0.018-0.02-0.038-0.038-0.056-0.057
						c-0.022-0.022-0.043-0.045-0.065-0.067c-0.349-0.362-0.756-0.651-1.22-0.851c-0.387-0.163-0.785-0.223-1.195-0.181
						c-0.415-0.026-0.813,0.052-1.196,0.234c-0.604,0.314-0.979,0.555-1.377,1.12c-0.326,0.461-0.528,0.997-0.591,1.559
						c-0.13,1.167,0.389,2.343,1.336,3.034c0.923,0.673,2.171,0.813,3.223,0.369c0.857-0.362,1.46-1.026,1.815-1.875
						c0.161-0.383,0.221-0.776,0.179-1.181c0.026-0.41-0.051-0.804-0.232-1.183C53.716,435.735,53.515,435.43,53.274,435.162z"/>
					<path style="fill:#6464A0;" d="M59.995,420.812c-1.299-1.449-3.115-2.524-5.133-2.217c-2.684,0.409-4.446,3.053-3.7,5.663
						c0.401,1.403,1.4,2.42,2.522,3.301c0.861,1.046,2.448,1.467,3.743,1.294c1.24-0.166,2.381-0.866,3.094-1.892
						C61.842,425.059,61.502,422.493,59.995,420.812z"/>
					<path style="fill:#6464A0;" d="M66.851,428.732c-1.284-0.307-2.649-0.046-3.693,0.795c-1.022,0.823-1.434,1.952-1.705,3.178
						c-0.096,0.432-0.127,0.878-0.11,1.324c-0.071,1.871,0.723,3.715,2.533,4.689c0.689,0.371,1.409,0.529,2.145,0.501
						c0.234,0.002,0.472-0.012,0.717-0.051c1.68-0.269,3.057-1.561,3.451-3.202c0.001-0.002,0.001-0.005,0.001-0.007
						c0.33-1.005,0.436-2.21,0.221-3.215c-0.189-0.883-0.474-1.701-1.046-2.418C68.719,429.518,67.848,428.97,66.851,428.732z"/>
					<path style="fill:#6464A0;" d="M56.292,447.368c-0.429-0.321-0.931-0.581-1.413-0.797c-0.93-0.418-2.015-0.577-3.019-0.41
						c-2.207,0.366-3.884,2.526-3.524,4.775c0.201,1.253,0.861,2.406,1.923,3.131c0.64,0.438,1.388,0.705,2.158,0.795
						c0.242,0.028,0.485,0.019,0.727,0.048c0.812,0.097,1.619-0.042,2.329-0.379c0.421-0.146,0.814-0.354,1.174-0.642
						c0.985-0.793,1.753-2.335,1.416-3.627c-0.198-0.758-0.36-1.358-0.863-2.008C56.939,447.92,56.633,447.624,56.292,447.368z"/>
					<path style="fill:#6464A0;" d="M66.372,442.175c-0.585-0.063-1.389,0.015-1.909,0.317c-0.461,0.181-0.843,0.461-1.145,0.84
						c-0.355,0.314-0.611,0.7-0.766,1.159c-0.071,0.295-0.141,0.59-0.212,0.885c-0.065,0.622,0.026,1.221,0.272,1.797
						c0.208,0.588,0.792,1.314,1.323,1.642c0.488,0.348,1.03,0.555,1.625,0.621c0.511,0.053,1.005-0.01,1.483-0.176
						c0.331-0.08,0.635-0.221,0.912-0.424c0.288-0.127,0.525-0.318,0.711-0.573c0.343-0.303,0.589-0.676,0.739-1.118
						c0.205-0.71,0.303-1.086,0.202-1.827c-0.091-0.667-0.34-1.269-0.765-1.796C68.24,442.772,67.328,442.278,66.372,442.175z"/>
					<path style="fill:#6464A0;" d="M44.691,416.741c-2.289,1.843,0.572,5.403,2.864,3.557
						C49.844,418.455,46.984,414.894,44.691,416.741z"/>
					<path style="fill:#6464A0;" d="M67.387,420.022c-0.836-0.054-1.651,0.143-2.316,0.679c-0.63,0.507-1.071,1.314-1.158,2.118
						c-0.06,0.415-0.017,0.815,0.129,1.199c0.082,0.417,0.265,0.789,0.55,1.117c0.54,0.612,1.279,1.103,2.118,1.158
						c0.836,0.054,1.651-0.143,2.316-0.679c0.63-0.507,1.071-1.314,1.158-2.118c0.06-0.415,0.018-0.815-0.129-1.199
						c-0.082-0.417-0.265-0.789-0.55-1.117C68.965,420.567,68.226,420.076,67.387,420.022z"/>
				</g>
				<path style="opacity:0.41;fill:#6464A0;" d="M76.395,430.013c2.247,10.381-3.701,22.555-13.198,27.399
					c-1.971,1.006-4.065,1.595-6.209,1.828c3.142-3.375,5.852-7.143,6.979-11.561c0.535-2.088,0.699-4.255,0.634-6.408
					c-0.142-4.85-1.44-9.665-3.745-13.931c-3.024-5.581-8.004-10.321-14.137-11.956c-2.638-0.707-5.481-0.749-8.16-0.139
					c2.638-2.059,5.815-3.564,9.482-4.277C60.311,408.581,73.791,417.983,76.395,430.013z"/>
				<g>
					<path style="fill:#7878C1;" d="M31.092,414.54c0.888,0.373,1.596,1.049,2.195,1.785c1.202,1.479,2.035,3.257,2.413,5.151
						c1.847-1.357,3.539-2.927,5.026-4.665c-2.063-0.705-3.857-2.01-5.255-3.632c-0.856-0.993-1.599-2.217-1.457-3.563
						c-0.058,0.514-2.207,1.966-2.647,2.358c-0.556,0.495-2.259,1.582-2.24,2.309C29.813,414.248,30.464,414.276,31.092,414.54z"/>
					<path style="fill:#6464A0;" d="M31.629,408.633c0.883-0.662,1.829-1.184,2.788-1.395c1.746-0.384,2.28,0.863,1.612,2.355
						c-1.128,2.524-3.7,4.5-5.904,6.217c-2.003,1.561-3.63,0.053-2.971-1.982c0.309-0.957,0.993-1.823,1.734-2.595
						C29.753,410.334,30.634,409.379,31.629,408.633z"/>
				</g>
			</g>
			<path style="opacity:0.35;fill:#FFFFFF;" d="M83.031,409.768c-14.017-16.356-38.636-18.251-54.992-4.234
				c-16.356,14.017-18.251,38.636-4.234,54.992c14.017,16.356,38.636,18.251,54.992,4.234
				C95.153,450.743,97.049,426.124,83.031,409.768z M33.478,411.879c11.682-10.012,28.73-9.688,40.008,0.108L27.46,451.432
				C19.506,438.788,21.796,421.891,33.478,411.879z M33.351,458.306l46.026-39.445c7.954,12.644,5.664,29.541-6.018,39.553
				C61.677,468.426,44.629,468.102,33.351,458.306z"/>
		</g>
		<g>
			<g>
				<g>
					<path style="fill:#7878C1;" d="M430.339,46.775c-0.459,1.093-1.291,1.965-2.198,2.703c-1.821,1.48-4.01,2.506-6.343,2.971
						c1.671,2.274,3.605,4.357,5.744,6.188c0.868-2.54,2.475-4.75,4.473-6.471c1.223-1.054,2.73-1.969,4.387-1.793
						c-0.633-0.071-2.421-2.718-2.904-3.26c-0.61-0.685-1.947-2.781-2.843-2.759C430.698,45.2,430.664,46.002,430.339,46.775z"/>
					<path style="fill:#6464A0;" d="M437.612,47.437c0.815,1.087,1.458,2.253,1.717,3.433c0.472,2.149-1.062,2.807-2.9,1.985
						c-3.108-1.389-5.541-4.556-7.655-7.269c-1.922-2.466-0.066-4.469,2.441-3.659c1.179,0.381,2.245,1.223,3.195,2.136
						C435.518,45.126,436.694,46.212,437.612,47.437z"/>
				</g>
				<g>
					<path style="fill:#7878C1;" d="M379.925,101.184c0.459-1.093,1.291-1.965,2.198-2.703c1.821-1.48,4.01-2.506,6.343-2.971
						c-1.671-2.274-3.605-4.357-5.744-6.188c-0.868,2.54-2.475,4.75-4.473,6.471c-1.223,1.054-2.73,1.969-4.387,1.793
						c0.633,0.072,2.422,2.718,2.904,3.26c0.61,0.685,1.947,2.781,2.843,2.759C379.565,102.76,379.6,101.958,379.925,101.184z"/>
					<path style="fill:#6464A0;" d="M372.652,100.523c-0.815-1.087-1.458-2.253-1.717-3.433c-0.472-2.149,1.062-2.807,2.9-1.986
						c3.108,1.389,5.541,4.556,7.655,7.269c1.922,2.466,0.065,4.469-2.441,3.659c-1.179-0.381-2.245-1.223-3.195-2.136
						C374.746,102.834,373.569,101.748,372.652,100.523z"/>
				</g>
				<g>
					<path style="fill:#7878C1;" d="M403.719,36.919c0.448,1.097,0.477,2.303,0.357,3.465c-0.241,2.335-1.064,4.607-2.384,6.586
						c2.79,0.426,5.63,0.532,8.437,0.314c-1.183-2.41-1.608-5.109-1.413-7.738c0.119-1.609,0.539-3.323,1.834-4.37
						c-0.498,0.397-3.634-0.21-4.358-0.251c-0.915-0.053-3.344-0.59-3.961,0.06C402.86,35.551,403.402,36.143,403.719,36.919z"/>
					<path style="fill:#6464A0;" d="M409.33,32.244c1.345,0.193,2.624,0.562,3.642,1.213c1.854,1.186,1.234,2.736-0.647,3.454
						c-3.18,1.215-7.14,0.696-10.553,0.273c-3.103-0.385-3.207-3.114-0.861-4.313c1.103-0.564,2.452-0.722,3.769-0.749
						C406.215,32.091,407.815,32.027,409.33,32.244z"/>
				</g>
				<g>
					<path style="fill:#7878C1;" d="M406.544,111.04c-0.448-1.097-0.477-2.303-0.357-3.465c0.241-2.335,1.064-4.607,2.384-6.586
						c-2.789-0.426-5.63-0.532-8.437-0.315c1.183,2.41,1.608,5.109,1.413,7.738c-0.119,1.609-0.539,3.323-1.834,4.37
						c0.498-0.397,3.634,0.21,4.358,0.251c0.915,0.053,3.344,0.59,3.961-0.06C407.404,112.409,406.862,111.817,406.544,111.04z"/>
					<path style="fill:#6464A0;" d="M400.934,115.716c-1.345-0.193-2.624-0.562-3.642-1.213c-1.854-1.186-1.234-2.736,0.647-3.454
						c3.18-1.215,7.14-0.696,10.553-0.273c3.103,0.385,3.207,3.114,0.861,4.313c-1.103,0.564-2.452,0.722-3.769,0.749
						C404.049,115.869,402.449,115.933,400.934,115.716z"/>
				</g>
				<g>
					<path style="fill:#7878C1;" d="M368.071,75.392c1.097-0.448,2.303-0.477,3.466-0.357c2.335,0.241,4.607,1.064,6.586,2.384
						c0.426-2.79,0.532-5.63,0.315-8.437c-2.41,1.183-5.109,1.608-7.738,1.413c-1.609-0.119-3.323-0.539-4.37-1.834
						c0.397,0.498-0.21,3.634-0.251,4.358c-0.053,0.915-0.59,3.344,0.06,3.961C366.703,76.252,367.295,75.71,368.071,75.392z"/>
					<path style="fill:#6464A0;" d="M363.396,69.782c0.193-1.345,0.562-2.624,1.213-3.642c1.186-1.854,2.736-1.234,3.454,0.647
						c1.215,3.18,0.696,7.14,0.273,10.553c-0.385,3.103-3.114,3.207-4.313,0.861c-0.564-1.103-0.722-2.452-0.749-3.769
						C363.243,72.897,363.179,71.297,363.396,69.782z"/>
				</g>
				<g>
					<path style="fill:#7878C1;" d="M442.192,72.567c-1.097,0.448-2.303,0.477-3.465,0.356c-2.335-0.241-4.607-1.064-6.586-2.384
						c-0.426,2.79-0.532,5.63-0.315,8.437c2.41-1.183,5.109-1.608,7.738-1.413c1.609,0.119,3.323,0.539,4.37,1.834
						c-0.397-0.498,0.21-3.634,0.251-4.358c0.053-0.915,0.589-3.344-0.06-3.961C443.561,71.708,442.969,72.25,442.192,72.567z"/>
					<path style="fill:#6464A0;" d="M446.868,78.178c-0.193,1.345-0.562,2.624-1.213,3.642c-1.186,1.854-2.736,1.234-3.454-0.647
						c-1.215-3.18-0.696-7.14-0.273-10.553c0.385-3.103,3.114-3.207,4.313-0.861c0.564,1.103,0.722,2.452,0.749,3.769
						C447.021,75.063,447.085,76.663,446.868,78.178z"/>
				</g>
				<g>
					<path style="fill:#7878C1;" d="M432.336,99.187c-1.093-0.459-1.965-1.291-2.703-2.198c-1.48-1.821-2.506-4.01-2.971-6.343
						c-2.274,1.671-4.357,3.605-6.188,5.744c2.54,0.868,4.75,2.475,6.471,4.473c1.054,1.223,1.969,2.73,1.794,4.387
						c0.072-0.633,2.718-2.421,3.26-2.904c0.684-0.61,2.781-1.947,2.759-2.843C433.912,99.546,433.11,99.512,432.336,99.187z"/>
					<path style="fill:#6464A0;" d="M431.675,106.46c-1.087,0.815-2.253,1.458-3.433,1.717c-2.149,0.472-2.807-1.062-1.986-2.9
						c1.389-3.108,4.556-5.541,7.269-7.655c2.466-1.922,4.469-0.065,3.659,2.441c-0.381,1.179-1.223,2.245-2.136,3.195
						C433.986,104.366,432.9,105.542,431.675,106.46z"/>
				</g>
				<path style="fill:#7878C1;" d="M433.71,67.825c2.767,12.782-4.557,27.773-16.251,33.737c-2.428,1.239-5.006,1.963-7.645,2.251
					c-8.948,0.977-18.558-3.114-25.199-9.548c-10.411-10.093-11.065-25.982-4.104-37.228c1.737-2.81,3.95-5.329,6.61-7.396
					c3.249-2.535,7.161-4.388,11.675-5.267C413.906,41.436,430.503,53.012,433.71,67.825z"/>
				<g>
					<path style="fill:#6464A0;" d="M386.037,76.871c-4.722,2.859-2.421,10.411,1.649,12.728c1.062,0.604,2.216,1.087,3.479,0.842
						c0.785-0.152,1.653-0.478,2.327-1.002c0.951-0.522,1.738-1.371,2.234-2.484c1.126-2.524-0.083-5.356-1.537-7.453
						C392.336,76.828,389.175,74.972,386.037,76.871z"/>
					<path style="fill:#6464A0;" d="M393.45,61.211c-0.855-0.572-1.753-0.928-2.776-1.059c-1.788-0.23-3.671,0.68-4.73,2.107
						c-1.543,2.08-1.27,4.909,0.341,6.854c1.223,1.477,3.132,2.349,5.005,2.599c1.453,0.194,2.941-0.171,4.089-1.104
						c1.753-1.426,2.34-3.861,1.453-5.931C396.198,63.199,394.891,61.976,393.45,61.211z"/>
					<path style="fill:#6464A0;" d="M405.241,74.166c-0.01-0.012-0.018-0.026-0.029-0.038c-0.022-0.025-0.047-0.046-0.07-0.071
						c-0.027-0.028-0.053-0.055-0.081-0.082c-0.429-0.445-0.93-0.802-1.502-1.048c-0.477-0.201-0.967-0.275-1.471-0.223
						c-0.51-0.032-1.001,0.064-1.473,0.288c-0.744,0.387-1.205,0.684-1.696,1.379c-0.401,0.568-0.65,1.228-0.727,1.92
						c-0.16,1.437,0.478,2.885,1.645,3.736c1.136,0.828,2.674,1.001,3.969,0.454c1.056-0.446,1.798-1.263,2.235-2.309
						c0.198-0.471,0.272-0.956,0.22-1.454c0.032-0.505-0.063-0.99-0.285-1.456C405.785,74.871,405.537,74.496,405.241,74.166z"/>
					<path style="fill:#6464A0;" d="M413.517,56.496c-1.6-1.784-3.836-3.108-6.321-2.73c-3.305,0.503-5.475,3.76-4.556,6.973
						c0.494,1.727,1.724,2.98,3.105,4.064c1.06,1.288,3.014,1.807,4.608,1.593c1.527-0.205,2.931-1.066,3.81-2.33
						C415.791,61.725,415.372,58.565,413.517,56.496z"/>
					<path style="fill:#6464A0;" d="M421.958,66.247c-1.581-0.378-3.262-0.056-4.548,0.979c-1.258,1.013-1.766,2.404-2.099,3.913
						c-0.118,0.532-0.156,1.081-0.135,1.63c-0.087,2.303,0.89,4.575,3.119,5.774c0.848,0.456,1.735,0.651,2.641,0.617
						c0.288,0.002,0.581-0.014,0.882-0.062c2.069-0.331,3.765-1.921,4.249-3.943c0.001-0.003,0.001-0.006,0.002-0.009
						c0.407-1.237,0.537-2.721,0.272-3.959c-0.232-1.087-0.584-2.095-1.288-2.977C424.258,67.215,423.186,66.542,421.958,66.247z"/>
					<path style="fill:#6464A0;" d="M408.956,89.196c-0.529-0.396-1.146-0.715-1.739-0.982c-1.145-0.514-2.481-0.71-3.717-0.505
						c-2.718,0.45-4.783,3.11-4.339,5.879c0.247,1.543,1.061,2.963,2.367,3.855c0.789,0.539,1.709,0.868,2.657,0.979
						c0.298,0.035,0.597,0.024,0.895,0.06c0.999,0.12,1.994-0.052,2.868-0.467c0.518-0.179,1.003-0.437,1.445-0.79
						c1.212-0.976,2.158-2.875,1.743-4.466c-0.244-0.934-0.443-1.672-1.063-2.472C409.753,89.875,409.377,89.51,408.956,89.196z"/>
					<path style="fill:#6464A0;" d="M421.368,82.8c-0.72-0.078-1.711,0.019-2.351,0.39c-0.568,0.223-1.038,0.568-1.41,1.035
						c-0.438,0.386-0.752,0.862-0.943,1.427c-0.087,0.363-0.174,0.726-0.261,1.09c-0.08,0.766,0.032,1.504,0.335,2.212
						c0.256,0.724,0.975,1.618,1.629,2.022c0.601,0.429,1.268,0.684,2.001,0.765c0.629,0.066,1.237-0.012,1.826-0.216
						c0.408-0.098,0.782-0.272,1.123-0.523c0.355-0.157,0.647-0.392,0.876-0.705c0.422-0.373,0.726-0.832,0.91-1.377
						c0.252-0.874,0.373-1.337,0.248-2.25c-0.112-0.822-0.419-1.562-0.941-2.211C423.668,83.536,422.545,82.927,421.368,82.8z"/>
					<path style="fill:#6464A0;" d="M394.672,51.482c-2.818,2.269,0.704,6.653,3.527,4.38
						C401.018,53.593,397.495,49.209,394.672,51.482z"/>
					<path style="fill:#6464A0;" d="M422.618,55.523c-1.029-0.067-2.033,0.176-2.852,0.836c-0.775,0.625-1.318,1.618-1.425,2.608
						c-0.074,0.511-0.022,1.004,0.158,1.477c0.101,0.513,0.327,0.971,0.678,1.375c0.665,0.754,1.575,1.358,2.608,1.425
						c1.029,0.067,2.032-0.176,2.852-0.836c0.775-0.624,1.318-1.618,1.425-2.608c0.074-0.511,0.022-1.004-0.158-1.477
						c-0.101-0.513-0.327-0.971-0.678-1.375C424.561,56.194,423.651,55.59,422.618,55.523z"/>
				</g>
				<path style="opacity:0.41;fill:#6464A0;" d="M433.71,67.825c2.767,12.782-4.557,27.773-16.251,33.737
					c-2.428,1.239-5.006,1.963-7.645,2.251c3.869-4.155,7.206-8.795,8.594-14.236c0.659-2.571,0.861-5.24,0.78-7.89
					c-0.175-5.973-1.773-11.901-4.612-17.154c-3.723-6.872-9.855-12.709-17.407-14.721c-3.248-0.871-6.749-0.923-10.048-0.171
					c3.249-2.535,7.161-4.388,11.675-5.267C413.906,41.436,430.503,53.012,433.71,67.825z"/>
				<g>
					<path style="fill:#7878C1;" d="M377.927,48.773c1.093,0.459,1.965,1.292,2.703,2.198c1.48,1.821,2.506,4.01,2.971,6.343
						c2.274-1.671,4.357-3.605,6.188-5.744c-2.54-0.868-4.75-2.475-6.471-4.473c-1.054-1.222-1.969-2.73-1.793-4.387
						c-0.072,0.633-2.718,2.421-3.26,2.904c-0.685,0.61-2.781,1.947-2.759,2.843C376.352,48.414,377.154,48.448,377.927,48.773z"/>
					<path style="fill:#6464A0;" d="M378.589,41.5c1.087-0.815,2.253-1.458,3.433-1.717c2.149-0.472,2.807,1.062,1.985,2.9
						c-1.389,3.108-4.556,5.541-7.269,7.655c-2.466,1.922-4.469,0.066-3.659-2.441c0.381-1.179,1.223-2.245,2.136-3.195
						C376.278,43.594,377.364,42.417,378.589,41.5z"/>
				</g>
			</g>
			<path style="opacity:0.35;fill:#FFFFFF;" d="M443.546,41.471c-18.048-21.059-49.745-23.499-70.804-5.451
				c-21.059,18.048-23.499,49.745-5.452,70.804c18.048,21.059,49.745,23.499,70.804,5.451
				C459.154,94.227,461.594,62.529,443.546,41.471z M379.744,44.189c15.041-12.89,36.991-12.474,51.511,0.139l-59.26,50.787
				C361.755,78.835,364.703,57.08,379.744,44.189z M379.581,103.966l59.259-50.787c10.241,16.28,7.293,38.035-7.748,50.925
				C416.052,116.995,394.102,116.578,379.581,103.966z"/>
		</g>
		<g>
			<g>
				<g>
					<path style="fill:#8F8FD1;" d="M98.694,82.644c-1.063,0.574-2.282,0.735-3.473,0.74c-2.393,0.011-4.786-0.574-6.936-1.696
						c-0.127,2.874,0.076,5.764,0.604,8.586c2.313-1.462,5.002-2.189,7.689-2.279c1.644-0.055,3.427,0.183,4.63,1.381
						c-0.457-0.461-0.185-3.706-0.222-4.445c-0.047-0.933,0.232-3.453-0.494-4.008C99.987,81.623,99.447,82.238,98.694,82.644z"/>
					<path style="fill:#7C7CC1;" d="M104.047,87.82c-0.048,1.384-0.283,2.721-0.831,3.824c-0.999,2.009-2.638,1.55-3.572-0.278
						c-1.579-3.09-1.486-7.16-1.43-10.666c0.051-3.187,2.805-3.59,4.277-1.345c0.692,1.056,1,2.407,1.171,3.739
						C103.861,84.645,104.101,86.26,104.047,87.82z"/>
				</g>
				<g>
					<path style="fill:#8F8FD1;" d="M23.878,93.613c1.063-0.575,2.282-0.735,3.473-0.74c2.393-0.011,4.786,0.574,6.936,1.696
						c0.127-2.874-0.076-5.764-0.604-8.586c-2.313,1.462-5.002,2.189-7.689,2.279c-1.644,0.055-3.427-0.183-4.63-1.381
						c0.457,0.462,0.185,3.706,0.222,4.445c0.047,0.933-0.232,3.453,0.494,4.008C22.585,94.634,23.125,94.02,23.878,93.613z"/>
					<path style="fill:#7C7CC1;" d="M18.525,88.438c0.048-1.384,0.283-2.721,0.831-3.824c0.999-2.009,2.638-1.549,3.572,0.278
						c1.579,3.09,1.486,7.16,1.43,10.666c-0.051,3.187-2.806,3.59-4.277,1.345c-0.692-1.056-1-2.407-1.171-3.738
						C18.711,91.612,18.471,89.997,18.525,88.438z"/>
				</g>
				<g>
					<path style="fill:#8F8FD1;" d="M83.86,57.799c-0.345,1.158-1.094,2.133-1.933,2.98c-1.684,1.7-3.79,2.978-6.104,3.705
						c1.942,2.122,4.13,4.022,6.498,5.644c0.602-2.67,1.989-5.085,3.826-7.048c1.124-1.202,2.552-2.294,4.25-2.298
						c-0.65-0.003-2.751-2.49-3.3-2.986c-0.693-0.627-2.278-2.606-3.183-2.485C84.052,56.163,84.104,56.979,83.86,57.799z"/>
					<path style="fill:#7C7CC1;" d="M91.304,57.674c0.945,1.013,1.724,2.124,2.116,3.292c0.714,2.127-0.77,2.961-2.722,2.329
						c-3.302-1.068-6.114-4.012-8.554-6.531c-2.217-2.289-0.555-4.523,2.074-3.975c1.236,0.257,2.409,0.994,3.472,1.815
						C88.928,55.561,90.24,56.533,91.304,57.674z"/>
				</g>
				<g>
					<path style="fill:#8F8FD1;" d="M38.713,118.458c0.346-1.158,1.094-2.133,1.933-2.979c1.684-1.7,3.79-2.978,6.104-3.705
						c-1.942-2.122-4.13-4.022-6.498-5.644c-0.602,2.67-1.989,5.085-3.826,7.048c-1.124,1.202-2.552,2.294-4.25,2.298
						c0.65,0.003,2.751,2.49,3.3,2.986c0.693,0.627,2.278,2.606,3.183,2.485C38.521,120.094,38.468,119.278,38.713,118.458z"/>
					<path style="fill:#7C7CC1;" d="M31.268,118.584c-0.945-1.013-1.724-2.124-2.116-3.292c-0.714-2.127,0.77-2.961,2.722-2.329
						c3.302,1.068,6.114,4.012,8.554,6.531c2.218,2.289,0.555,4.523-2.074,3.975c-1.236-0.257-2.409-0.994-3.472-1.815
						C33.644,120.697,32.333,119.725,31.268,118.584z"/>
				</g>
				<g>
					<path style="fill:#8F8FD1;" d="M30.956,65.555c1.158,0.345,2.133,1.094,2.98,1.933c1.7,1.684,2.978,3.79,3.705,6.104
						c2.122-1.942,4.022-4.13,5.644-6.498c-2.669-0.602-5.085-1.989-7.048-3.826c-1.202-1.124-2.294-2.552-2.298-4.25
						c-0.003,0.649-2.49,2.751-2.986,3.3c-0.627,0.693-2.606,2.278-2.485,3.183C29.32,65.363,30.137,65.311,30.956,65.555z"/>
					<path style="fill:#7C7CC1;" d="M30.831,58.111c1.013-0.945,2.124-1.724,3.292-2.116c2.127-0.714,2.961,0.77,2.33,2.722
						c-1.068,3.302-4.012,6.114-6.531,8.554c-2.289,2.217-4.523,0.555-3.975-2.074c0.257-1.236,0.994-2.409,1.815-3.472
						C28.718,60.486,29.69,59.175,30.831,58.111z"/>
				</g>
				<g>
					<path style="fill:#8F8FD1;" d="M91.616,110.702c-1.158-0.346-2.133-1.094-2.98-1.933c-1.7-1.684-2.978-3.79-3.705-6.104
						c-2.122,1.942-4.022,4.13-5.644,6.498c2.67,0.602,5.085,1.989,7.048,3.826c1.202,1.124,2.294,2.552,2.298,4.25
						c0.003-0.65,2.49-2.752,2.986-3.3c0.627-0.693,2.606-2.278,2.485-3.183C93.252,110.894,92.435,110.947,91.616,110.702z"/>
					<path style="fill:#7C7CC1;" d="M91.741,118.146c-1.013,0.945-2.124,1.724-3.292,2.116c-2.127,0.714-2.961-0.77-2.329-2.722
						c1.068-3.302,4.012-6.114,6.531-8.553c2.289-2.217,4.523-0.555,3.975,2.074c-0.257,1.236-0.994,2.409-1.815,3.472
						C93.854,115.771,92.882,117.082,91.741,118.146z"/>
				</g>
				<g>
					<path style="fill:#8F8FD1;" d="M66.771,125.537c-0.575-1.063-0.735-2.282-0.74-3.473c-0.011-2.393,0.574-4.786,1.696-6.936
						c-2.874-0.127-5.764,0.076-8.586,0.604c1.462,2.313,2.189,5.002,2.279,7.689c0.055,1.644-0.183,3.427-1.381,4.63
						c0.462-0.457,3.706-0.185,4.445-0.222c0.933-0.047,3.453,0.232,4.008-0.494C67.792,126.829,67.177,126.289,66.771,125.537z"/>
					<path style="fill:#7C7CC1;" d="M61.595,130.889c-1.385-0.048-2.721-0.283-3.824-0.831c-2.009-0.999-1.55-2.638,0.278-3.572
						c3.09-1.579,7.16-1.486,10.666-1.43c3.187,0.051,3.59,2.805,1.345,4.277c-1.056,0.692-2.407,1-3.739,1.171
						C64.769,130.704,63.155,130.944,61.595,130.889z"/>
				</g>
				<g>
					<path style="fill:#8F8FD1;" d="M87.913,101.514c-5.975,11.919-21.375,19.138-34.474,16.397c-2.72-0.569-5.23-1.641-7.509-3.1
						c-7.729-4.946-12.745-14.338-13.903-23.692c-1.813-14.67,7.826-27.705,20.544-32.184c3.175-1.121,6.544-1.706,9.977-1.647
						c4.2,0.064,8.491,1.094,12.637,3.283C89.061,67.898,94.837,87.701,87.913,101.514z"/>
					<g>
						<path style="fill:#7C7CC1;" d="M44.276,78.216c-5.577-0.749-8.579,6.719-6.828,11.161c0.457,1.159,1.064,2.28,2.225,2.893
							c0.72,0.381,1.618,0.677,2.488,0.693c1.089,0.193,2.257,0.023,3.362-0.543c2.508-1.284,3.359-4.306,3.545-6.901
							C49.305,82.209,47.982,78.714,44.276,78.216z"/>
						<path style="fill:#7C7CC1;" d="M60.175,70.521c-0.313-1.001-0.798-1.857-1.527-2.616c-1.273-1.326-3.349-1.807-5.103-1.351
							c-2.555,0.666-4.147,3.086-4.112,5.66c0.026,1.955,0.985,3.868,2.312,5.264c1.03,1.083,2.444,1.745,3.952,1.738
							c2.304-0.011,4.326-1.57,4.945-3.78C61.085,73.856,60.83,72.05,60.175,70.521z"/>
						<path style="fill:#7C7CC1;" d="M61.254,88.346c0-0.016,0.002-0.032,0.001-0.048c-0.002-0.034-0.008-0.067-0.01-0.101
							c-0.003-0.039-0.007-0.078-0.012-0.117c-0.056-0.628-0.226-1.232-0.522-1.793c-0.25-0.464-0.592-0.836-1.026-1.117
							c-0.385-0.352-0.836-0.59-1.354-0.713c-0.838-0.168-1.394-0.228-2.228,0.011c-0.681,0.195-1.302,0.559-1.805,1.059
							c-1.046,1.039-1.465,2.597-1.082,4.018c0.373,1.384,1.483,2.504,2.861,2.898c1.123,0.321,2.235,0.146,3.251-0.404
							c0.459-0.247,0.827-0.585,1.104-1.014c0.348-0.38,0.583-0.826,0.705-1.339C61.235,89.254,61.278,88.797,61.254,88.346z"/>
						<path style="fill:#7C7CC1;" d="M79.122,79.607c-0.13-2.439-1.058-4.921-3.274-6.209c-2.946-1.713-6.751-0.515-8.076,2.624
							c-0.712,1.687-0.537,3.468-0.133,5.212c0.019,1.7,1.238,3.361,2.641,4.211c1.343,0.814,3.009,1.028,4.515,0.586
							C77.585,85.213,79.273,82.437,79.122,79.607z"/>
						<path style="fill:#7C7CC1;" d="M79.59,92.747c-1.013-1.311-2.554-2.13-4.237-2.13c-1.647,0-2.939,0.78-4.169,1.765
							c-0.434,0.347-0.815,0.758-1.149,1.208c-1.542,1.773-2.218,4.201-1.215,6.579c0.382,0.905,0.961,1.626,1.702,2.178
							c0.227,0.186,0.47,0.36,0.741,0.515c1.855,1.06,4.218,0.881,5.895-0.414c0.002-0.002,0.004-0.004,0.007-0.006
							c1.114-0.722,2.166-1.817,2.747-2.97c0.511-1.012,0.876-2.037,0.881-3.188C80.798,94.986,80.377,93.766,79.59,92.747z"/>
						<path style="fill:#7C7CC1;" d="M54.594,102.656c-0.167-0.652-0.453-1.3-0.753-1.892c-0.58-1.14-1.516-2.15-2.629-2.778
							c-2.446-1.38-5.786-0.588-7.204,1.894c-0.79,1.383-1.052,3.031-0.585,4.575c0.282,0.932,0.802,1.782,1.483,2.476
							c0.214,0.218,0.459,0.401,0.672,0.619c0.717,0.734,1.617,1.233,2.576,1.463c0.526,0.189,1.075,0.294,1.653,0.296
							c1.587,0,3.552-0.903,4.24-2.432c0.404-0.897,0.718-1.611,0.737-2.642C54.793,103.704,54.727,103.174,54.594,102.656z"/>
						<path style="fill:#7C7CC1;" d="M68.539,105.513c-0.522-0.522-1.37-1.079-2.116-1.193c-0.594-0.186-1.187-0.213-1.781-0.08
							c-0.594,0.027-1.148,0.204-1.661,0.53c-0.301,0.233-0.603,0.466-0.904,0.698c-0.554,0.557-0.936,1.214-1.149,1.971
							c-0.26,0.738-0.26,1.908,0.001,2.647c0.203,0.724,0.57,1.354,1.1,1.887c0.458,0.455,0.99,0.782,1.588,0.996
							c0.386,0.183,0.795,0.284,1.226,0.303c0.382,0.103,0.764,0.103,1.146,0c0.574-0.026,1.108-0.196,1.603-0.512
							c0.759-0.533,1.151-0.823,1.635-1.628c0.436-0.724,0.667-1.508,0.667-2.358C69.895,107.568,69.392,106.367,68.539,105.513z"/>
						<path style="fill:#7C7CC1;" d="M67.365,63.578c-3.689,0-3.695,5.733,0,5.733C71.054,69.311,71.06,63.578,67.365,63.578z"/>
						<path style="fill:#7C7CC1;" d="M86.971,84.654c-0.774-0.711-1.727-1.16-2.799-1.16c-1.015,0-2.081,0.442-2.799,1.16
							c-0.386,0.358-0.659,0.783-0.819,1.274c-0.248,0.472-0.361,0.98-0.341,1.525c0.046,1.024,0.382,2.086,1.16,2.799
							c0.774,0.711,1.727,1.159,2.799,1.159c1.015,0,2.081-0.442,2.799-1.159c0.386-0.359,0.659-0.783,0.818-1.274
							c0.248-0.472,0.362-0.98,0.341-1.525C88.085,86.429,87.749,85.367,86.971,84.654z"/>
					</g>
					<path style="opacity:0.32;fill:#7C7CC1;" d="M87.913,101.514c-5.975,11.919-21.375,19.138-34.474,16.397
						c-2.72-0.569-5.23-1.641-7.509-3.1c5.729-0.826,11.345-2.376,15.925-5.809c2.167-1.62,4.034-3.61,5.664-5.766
						c3.68-4.854,6.201-10.583,7.306-16.569c1.438-7.837,0.3-16.392-4.409-22.818c-2.022-2.768-4.769-5.047-7.869-6.56
						c4.2,0.064,8.491,1.094,12.637,3.283C89.061,67.898,94.837,87.701,87.913,101.514z"/>
				</g>
				<g>
					<path style="fill:#8F8FD1;" d="M55.802,50.72c0.575,1.063,0.735,2.282,0.74,3.473c0.011,2.393-0.574,4.786-1.696,6.936
						c2.874,0.127,5.764-0.076,8.586-0.604c-1.462-2.313-2.189-5.002-2.278-7.689c-0.055-1.644,0.183-3.427,1.381-4.63
						c-0.462,0.457-3.706,0.185-4.445,0.222c-0.934,0.047-3.453-0.232-4.008,0.494C54.781,49.428,55.395,49.968,55.802,50.72z"/>
					<path style="fill:#7C7CC1;" d="M60.977,45.368c1.385,0.048,2.721,0.283,3.824,0.831c2.009,0.999,1.55,2.638-0.278,3.572
						c-3.09,1.579-7.16,1.486-10.666,1.43c-3.187-0.051-3.591-2.806-1.345-4.277c1.056-0.692,2.407-1,3.739-1.171
						C57.803,45.554,59.417,45.314,60.977,45.368z"/>
				</g>
			</g>
			<path style="opacity:0.35;fill:#FFFFFF;" d="M98.445,57.335c-17.251-20.129-47.55-22.462-67.679-5.211
				c-20.13,17.251-22.462,47.55-5.211,67.679c17.251,20.13,47.55,22.462,67.679,5.211C113.364,107.763,115.696,77.465,98.445,57.335
				z M37.459,59.934c14.377-12.321,35.359-11.923,49.238,0.133l-56.644,48.545C20.264,93.051,23.082,72.255,37.459,59.934z
				 M37.303,117.072l56.644-48.545c9.789,15.561,6.971,36.356-7.406,48.678C72.164,129.526,51.183,129.128,37.303,117.072z"/>
		</g>
	</g>
</g>
</svg>
