<?xml version="1.0" encoding="utf-8"?>
<!-- Generator: Adobe Illustrator 27.5.0, SVG Export Plug-In . SVG Version: 6.00 Build 0)  -->
<svg version="1.1" id="Ñëîé_1" xmlns="http://www.w3.org/2000/svg" xmlns:xlink="http://www.w3.org/1999/xlink" x="0px" y="0px"
	 viewBox="0 0 2600 2000" style="enable-background:new 0 0 2600 2000;" xml:space="preserve">
<rect id="_x33_" style="fill:#A2C3F2;" width="2600" height="2000"/>
<g id="_x32_">
	<path style="fill:#305777;" d="M1099.477,540.281c0,0,115.059,49.718,210.034,6.251
		C1309.511,546.532,1213.842,472.924,1099.477,540.281z"/>
	<polygon style="fill:#F1F3F2;" points="2087.247,1720.214 1387.692,1047.071 1469.85,915.636 2381.427,1249.594 	"/>
	<path style="fill:#F69D85;" d="M1265.929,768.225l-95.259-60.477c-52.124,46.363-97.549,123.976-91.662,144.337l118.167,77.487
		C1266.173,857.134,1265.929,768.225,1265.929,768.225z"/>
	<path style="fill:#394572;" d="M1355.691,1058.248l-307.173-278.825l24.848-40.543l387.868,147.163
		c16.724,6.617,24.933,25.028,16.96,38.037l-80.912,132.016C1389.308,1069.106,1369.177,1070.147,1355.691,1058.248z"/>
	<path style="fill:#F69D85;" d="M1166.731,852.486l-34.042,42.962c-6.395,8.07-5.036,19.797,3.034,26.191l0,0
		c8.07,6.395,19.797,5.036,26.192-3.034l34.042-42.962c6.395-8.07,5.036-19.797-3.034-26.191l0,0
		C1184.852,843.057,1173.126,844.415,1166.731,852.486z"/>
	<path style="fill:#EA8973;" d="M1180.388,845.66c0.615-0.356,1.41-0.323,2,0.145c0.771,0.611,0.901,1.732,0.29,2.502l-7.862,9.922
		c-1.57,1.982-2.357,4.378-2.217,6.749c0.136,2.295,1.134,4.29,2.809,5.618c1.675,1.327,3.846,1.842,6.111,1.45
		c2.339-0.404,4.493-1.718,6.063-3.7l7.863-9.923c0.612-0.771,1.732-0.901,2.502-0.29c0.771,0.611,0.901,1.732,0.29,2.502
		l-7.863,9.923c-2.115,2.67-5.045,4.444-8.248,4.999c-3.279,0.567-6.451-0.203-8.931-2.169c-2.481-1.966-3.956-4.878-4.153-8.199
		c-0.193-3.246,0.866-6.504,2.981-9.172l7.862-9.922C1180.029,845.915,1180.201,845.769,1180.388,845.66z"/>
	<path style="fill:#F69D85;" d="M1196.269,872.456l-34.042,42.962c-6.395,8.07-5.036,19.797,3.034,26.191l0,0
		c8.07,6.395,19.797,5.037,26.192-3.034l34.042-42.962c6.395-8.07,5.036-19.797-3.034-26.191l0,0
		C1214.39,863.028,1202.664,864.386,1196.269,872.456z"/>
	<path style="fill:#F69D85;" d="M1138.747,830.311l-34.042,42.962c-6.395,8.07-5.037,19.797,3.034,26.191v0
		c8.07,6.395,19.797,5.037,26.192-3.034l34.042-42.962c6.395-8.07,5.036-19.797-3.034-26.191v0
		C1156.868,820.883,1145.141,822.241,1138.747,830.311z"/>
	<path style="fill:#F69D85;" d="M1114.763,804.438l-34.042,42.961c-6.395,8.07-5.037,19.797,3.034,26.192l0,0
		c8.07,6.395,19.797,5.037,26.191-3.034l34.042-42.962c6.395-8.07,5.036-19.797-3.034-26.191l0,0
		C1132.884,795.009,1121.158,796.368,1114.763,804.438z"/>
	<path style="fill:#EA8973;" d="M1153.621,823.479c0.599-0.347,1.374-0.315,1.95,0.141c0.751,0.596,0.878,1.687,0.282,2.439
		l-7.862,9.922c-3.209,4.049-3.114,9.487,0.211,12.122c3.325,2.633,8.639,1.483,11.848-2.566l7.863-9.923
		c0.595-0.752,1.687-0.878,2.439-0.282c0.751,0.596,0.878,1.687,0.282,2.439l-7.863,9.923c-4.397,5.549-11.901,6.954-16.727,3.131
		c-4.825-3.824-5.173-11.45-0.776-17.001l7.862-9.922C1153.272,823.727,1153.438,823.586,1153.621,823.479z"/>
	<path style="fill:#EA8973;" d="M1128.681,797.613c0.617-0.357,1.415-0.324,2.007,0.146c0.774,0.613,0.904,1.737,0.291,2.511
		l-7.862,9.922c-1.568,1.978-2.349,4.376-2.2,6.75c0.145,2.304,1.155,4.31,2.845,5.649c1.689,1.339,3.873,1.864,6.149,1.478
		c2.346-0.398,4.501-1.706,6.069-3.685l7.863-9.923c0.612-0.771,1.737-0.904,2.511-0.291c0.774,0.613,0.904,1.737,0.291,2.511
		l-7.863,9.923c-2.118,2.671-5.055,4.444-8.273,4.989c-3.289,0.558-6.474-0.224-8.968-2.201c-2.494-1.977-3.983-4.899-4.193-8.227
		c-0.204-3.258,0.849-6.523,2.966-9.195l7.862-9.922C1128.321,797.869,1128.492,797.722,1128.681,797.613z"/>
	<path style="fill:#EA8973;" d="M1209.962,865.685c0.593-0.391,1.389-0.404,2.005,0.029c0.805,0.565,0.999,1.677,0.434,2.481
		l-7.277,10.359c-1.453,2.069-2.101,4.507-1.824,6.865c0.268,2.283,1.379,4.218,3.128,5.446c1.749,1.229,3.946,1.618,6.185,1.096
		c2.312-0.538,4.387-1.974,5.84-4.043l7.278-10.359c0.567-0.805,1.677-0.999,2.481-0.434c0.805,0.565,0.999,1.677,0.434,2.482
		l-7.278,10.359c-1.958,2.787-4.78,4.727-7.946,5.466c-3.24,0.755-6.452,0.169-9.041-1.651c-2.59-1.82-4.23-4.642-4.618-7.946
		c-0.379-3.23,0.49-6.543,2.448-9.329l7.277-10.358C1209.618,865.96,1209.781,865.805,1209.962,865.685z"/>
	<path style="fill:#F69D85;" d="M1248.511,861.767c-6.817-18.853-25.119-66.601-25.119-66.601l54.166-33.491
		c0,0,5.24,97.893,6.184,109.616c1.358,16.856-16.267,22.588-24.589,13.713C1255.392,880.888,1250.535,867.365,1248.511,861.767z"/>
	<path style="fill:#EA8973;" d="M1280.36,850.428c0.251-0.01,0.496-0.012,0.735-0.004c0.984,0.03,1.756,0.852,1.726,1.835
		c-0.03,0.983-0.852,1.76-1.836,1.725c-2.175-0.055-8.24,1.445-8.547,6.901c-0.347,6.169,2.315,25.093,2.342,25.284
		c0.138,0.974-0.54,1.875-1.514,2.013c-0.977,0.134-1.876-0.541-2.013-1.515c-0.112-0.792-2.738-19.465-2.371-25.982
		C1269.267,853.811,1275.701,850.613,1280.36,850.428z"/>
	<path style="fill:#EA8973;" d="M1200.925,871.066l-39.228,49.337c-0.653,0.822-1.85,0.959-2.672,0.305l0,0
		c-0.822-0.654-0.958-1.85-0.305-2.672l39.228-49.337c0.654-0.822,1.85-0.958,2.672-0.305l0,0
		C1201.442,869.048,1201.578,870.244,1200.925,871.066z"/>
	<path style="fill:#EA8973;" d="M1172.045,850.942l-39.228,49.337c-0.654,0.822-1.85,0.958-2.672,0.305l0,0
		c-0.822-0.654-0.958-1.85-0.305-2.672l39.228-49.337c0.654-0.822,1.85-0.958,2.672-0.305l0,0
		C1172.562,848.924,1172.698,850.12,1172.045,850.942z"/>
	<path style="fill:#EA8973;" d="M1145.149,826.797l-39.228,49.337c-0.654,0.822-1.85,0.958-2.672,0.305l0,0
		c-0.822-0.654-0.958-1.85-0.305-2.672l39.228-49.338c0.654-0.822,1.85-0.958,2.672-0.305l0,0
		C1145.666,824.779,1145.802,825.975,1145.149,826.797z"/>
	<path style="fill:#EA8973;" d="M1098.665,827.109l-11.293,14.204c-0.653,0.822-1.85,0.958-2.672,0.305l0,0
		c-0.822-0.654-0.958-1.85-0.305-2.672l11.293-14.204c0.654-0.822,1.85-0.958,2.672-0.305l0,0
		C1099.182,825.091,1099.319,826.287,1098.665,827.109z"/>
	<path style="fill:#394572;" d="M869.021,571.773c-6.758,0-13.398-3.232-17.491-9.238L633.863,243.205
		c-6.578-9.65-4.087-22.804,5.563-29.382c9.65-6.578,22.805-4.087,29.382,5.563l217.667,319.331
		c6.578,9.649,4.087,22.804-5.563,29.382C877.267,570.583,873.123,571.773,869.021,571.773z"/>
	<path style="fill:#394572;" d="M869.786,572.001c-3.721,0-7.488-0.982-10.906-3.045L528.009,369.269
		c-9.998-6.034-13.212-19.031-7.178-29.029c6.034-10,19.03-13.213,29.029-7.178l330.871,199.688
		c9.999,6.034,13.212,19.031,7.178,29.029C883.938,568.359,876.949,572.001,869.786,572.001z"/>
	
		<rect x="711.212" y="655.231" transform="matrix(0.8527 0.5224 -0.5224 0.8527 483.6891 -299.2657)" style="fill:#FF593A;" width="122.642" height="105.726"/>
	<path style="fill:#FF593A;" d="M917.561,713.802l-79.65-48.796c-6.884-4.217-9.045-13.216-4.828-20.1l22.821-37.251
		c4.217-6.884,13.216-9.045,20.1-4.828l79.65,48.796c6.884,4.217,9.045,13.216,4.828,20.1l-22.821,37.251
		C933.444,715.858,924.445,718.019,917.561,713.802z"/>
	<path style="fill:#FF593A;" d="M1047.367,793.359l-79.65-48.795c-6.884-4.217-9.045-13.216-4.828-20.1l22.821-37.251
		c4.217-6.884,13.216-9.045,20.1-4.828l79.65,48.795c6.884,4.217,9.045,13.216,4.828,20.1l-22.821,37.251
		C1063.249,795.415,1054.25,797.576,1047.367,793.359z"/>
	<path style="fill:#FF593A;" d="M909.803,721.082l48.796-79.65c4.217-6.884,13.216-9.045,20.1-4.828l37.251,22.821
		c6.884,4.217,9.045,13.216,4.828,20.1l-48.796,79.65c-4.217,6.884-13.216,9.045-20.1,4.828l-37.251-22.821
		C907.748,736.965,905.586,727.966,909.803,721.082z"/>
	<path style="fill:#FF593A;" d="M474.167,1361.572l-150.874-92.429c-46.202-28.305-60.711-88.704-32.407-134.906L546.145,717.57
		c28.305-46.202,88.704-60.711,134.906-32.407l150.875,92.429c46.202,28.305,60.711,88.704,32.407,134.906l-255.259,416.666
		C580.768,1375.367,520.369,1389.876,474.167,1361.572z"/>
	<path style="fill:#F1F3F2;" d="M731.649,936.019l-74.684-45.957c-1.832-1.127-2.497-3.375-1.486-5.019
		c1.012-1.644,3.318-2.063,5.15-0.936l74.684,45.957c1.832,1.127,2.497,3.375,1.486,5.019
		C735.787,936.728,733.482,937.147,731.649,936.019z"/>
	<path style="fill:#F1F3F2;" d="M643.13,881.549l-57.178-35.184c-1.832-1.128-2.497-3.375-1.486-5.019
		c1.012-1.644,3.318-2.063,5.15-0.936l57.178,35.184c1.832,1.128,2.497,3.375,1.486,5.019
		C647.268,882.257,644.962,882.676,643.13,881.549z"/>
	<path style="fill:#F1F3F2;" d="M721.853,951.94l-31.342-19.286c-1.832-1.127-2.497-3.375-1.486-5.019
		c1.012-1.644,3.318-2.063,5.15-0.936l31.342,19.286c1.832,1.127,2.497,3.375,1.486,5.019
		C725.991,952.648,723.685,953.067,721.853,951.94z"/>
	<path style="fill:#F1F3F2;" d="M679.922,926.138l-103.766-63.853c-1.832-1.127-2.497-3.375-1.486-5.019
		c1.012-1.644,3.318-2.063,5.15-0.936l103.766,63.853c1.832,1.128,2.497,3.375,1.486,5.019
		C684.06,926.846,681.754,927.265,679.922,926.138z"/>
	<path style="fill:#F1F3F2;" d="M712.056,967.861l-55.342-34.055c-1.832-1.127-2.497-3.375-1.486-5.019
		c1.012-1.644,3.318-2.063,5.15-0.936l55.342,34.055c1.832,1.127,2.497,3.375,1.486,5.019
		C716.194,968.569,713.888,968.988,712.056,967.861z"/>
	<path style="fill:#F1F3F2;" d="M644.572,926.334l-37.977-23.369c-1.832-1.127-2.497-3.375-1.486-5.019
		c1.012-1.644,3.318-2.063,5.15-0.936l37.977,23.369c1.832,1.127,2.497,3.375,1.486,5.019
		C648.71,927.043,646.404,927.462,644.572,926.334z"/>
	<path style="fill:#F1F3F2;" d="M591.771,893.843l-25.412-15.637c-1.832-1.127-2.497-3.375-1.486-5.019
		c1.012-1.644,3.318-2.063,5.15-0.936l25.412,15.637c1.832,1.127,2.497,3.375,1.486,5.019
		C595.909,894.552,593.603,894.971,591.771,893.843z"/>
	<path style="fill:#F1F3F2;" d="M469.314,1035.912l74.684,45.957c1.832,1.127,4.138,0.709,5.15-0.936
		c1.012-1.644,0.347-3.891-1.486-5.019l-74.684-45.957c-1.832-1.127-4.138-0.708-5.15,0.936
		C466.816,1032.538,467.482,1034.785,469.314,1035.912z"/>
	<path style="fill:#F1F3F2;" d="M557.833,1090.383l17.424,10.83c1.832,1.127,4.138,0.708,5.15-0.936
		c1.012-1.644,0.347-3.891-1.486-5.019l-17.424-10.831c-1.832-1.127-4.138-0.708-5.15,0.936
		C555.336,1087.008,556.001,1089.255,557.833,1090.383z"/>
	<path style="fill:#F1F3F2;" d="M459.517,1051.833l31.342,19.286c1.832,1.127,4.138,0.709,5.15-0.936
		c1.012-1.644,0.347-3.891-1.486-5.019l-31.342-19.286c-1.832-1.127-4.138-0.708-5.15,0.936
		C457.02,1048.458,457.685,1050.706,459.517,1051.833z"/>
	<path style="fill:#F1F3F2;" d="M501.448,1077.635l64.013,39.499c1.832,1.127,4.138,0.708,5.15-0.936
		c1.012-1.644,0.347-3.891-1.486-5.019l-64.013-39.499c-1.832-1.127-4.138-0.708-5.15,0.936
		C498.95,1074.26,499.615,1076.507,501.448,1077.635z"/>
	<path style="fill:#F1F3F2;" d="M449.72,1067.754l55.342,34.055c1.832,1.127,4.138,0.708,5.15-0.936
		c1.012-1.644,0.346-3.891-1.486-5.019l-55.342-34.055c-1.832-1.127-4.138-0.708-5.15,0.936
		C447.223,1064.38,447.888,1066.627,449.72,1067.754z"/>
	<path style="fill:#F1F3F2;" d="M526.911,1115.227l28.732,17.706c1.832,1.128,4.138,0.709,5.15-0.936
		c1.012-1.644,0.346-3.891-1.486-5.019l-28.732-17.706c-1.832-1.127-4.138-0.708-5.15,0.936
		C524.414,1111.853,525.079,1114.1,526.911,1115.227z"/>
	<path style="fill:#F1F3F2;" d="M697.309,995.529l-56.492-34.762c-0.908-0.559-1.233-1.677-0.727-2.5
		c0.506-0.822,1.651-1.036,2.559-0.477l56.492,34.762c0.908,0.558,1.233,1.677,0.727,2.5
		C699.362,995.874,698.217,996.088,697.309,995.529z"/>
	<path style="fill:#F1F3F2;" d="M627.394,952.506l-26.288-16.177c-0.908-0.559-1.233-1.677-0.727-2.5
		c0.506-0.822,1.651-1.036,2.559-0.478l26.288,16.177c0.908,0.559,1.233,1.677,0.727,2.5
		C629.447,952.851,628.301,953.065,627.394,952.506z"/>
	<path style="fill:#F1F3F2;" d="M691.203,1005.453l-96.204-59.199c-0.908-0.559-1.233-1.677-0.727-2.5
		c0.506-0.822,1.651-1.036,2.559-0.478l96.204,59.199c0.908,0.558,1.233,1.677,0.727,2.5
		C693.256,1005.798,692.11,1006.011,691.203,1005.453z"/>
	<path style="fill:#F1F3F2;" d="M685.096,1015.377l-31.882-19.618c-0.908-0.559-1.233-1.677-0.727-2.5
		c0.506-0.822,1.651-1.036,2.559-0.478l31.881,19.618c0.908,0.558,1.233,1.677,0.727,2.5
		C687.149,1015.722,686.003,1015.935,685.096,1015.377z"/>
	<path style="fill:#F1F3F2;" d="M644.545,990.424l-55.653-34.246c-0.908-0.559-1.233-1.677-0.727-2.5
		c0.506-0.822,1.651-1.036,2.559-0.477l55.653,34.246c0.908,0.559,1.233,1.677,0.727,2.5
		C646.598,990.768,645.452,990.982,644.545,990.424z"/>
	<path style="fill:#F1F3F2;" d="M671.808,1036.971l-96.204-59.199c-0.908-0.559-1.233-1.677-0.727-2.5
		c0.506-0.822,1.651-1.036,2.559-0.477l96.204,59.199c0.908,0.558,1.233,1.677,0.727,2.5
		C673.861,1037.316,672.715,1037.53,671.808,1036.971z"/>
	<path style="fill:#F1F3F2;" d="M665.701,1046.895l-50.339-30.976c-0.908-0.559-1.233-1.677-0.727-2.5
		c0.506-0.822,1.651-1.036,2.559-0.478l50.339,30.976c0.908,0.558,1.233,1.677,0.727,2.5
		C667.754,1047.24,666.609,1047.454,665.701,1046.895z"/>
	<path style="fill:#F1F3F2;" d="M607.811,1011.273l-38.314-23.577c-0.908-0.558-1.233-1.677-0.727-2.5
		c0.506-0.822,1.651-1.036,2.559-0.478l38.314,23.577c0.908,0.558,1.233,1.677,0.727,2.5
		C609.864,1011.617,608.719,1011.831,607.811,1011.273z"/>
	<path style="fill:#F1F3F2;" d="M659.594,1056.819L563.39,997.62c-0.908-0.558-1.233-1.677-0.727-2.5
		c0.506-0.822,1.651-1.036,2.559-0.478l96.204,59.199c0.908,0.559,1.233,1.677,0.727,2.5
		C661.647,1057.164,660.502,1057.378,659.594,1056.819z"/>
	<path style="fill:#F1F3F2;" d="M605.63,1053.654l-55.637-34.261c-0.908-0.559-1.233-1.677-0.727-2.5
		c0.506-0.822,1.651-1.036,2.559-0.478l55.637,34.262c0.908,0.558,1.233,1.677,0.727,2.5
		C607.683,1053.998,606.537,1054.212,605.63,1053.654z"/>
	<path style="fill:#F1F3F2;" d="M599.874,1063.878l-19.632-12.19c-0.908-0.558-1.233-1.677-0.727-2.5
		c0.506-0.822,1.651-1.036,2.559-0.477l19.632,12.19c0.908,0.559,1.233,1.677,0.727,2.5
		C601.927,1064.223,600.782,1064.437,599.874,1063.878z"/>
	<path style="fill:#F1F3F2;" d="M566.539,1043.256l-22.653-13.94c-0.908-0.558-1.233-1.677-0.727-2.5
		c0.506-0.822,1.651-1.036,2.559-0.478l22.653,13.939c0.908,0.559,1.233,1.677,0.727,2.5
		C568.592,1043.6,567.447,1043.814,566.539,1043.256z"/>
	<path style="fill:#F1F3F2;" d="M593.768,1073.802l-55.988-34.562c-0.908-0.558-1.233-1.677-0.727-2.5
		c0.506-0.822,1.651-1.036,2.559-0.478l55.988,34.562c0.908,0.558,1.233,1.677,0.727,2.5
		C595.821,1074.147,594.675,1074.361,593.768,1073.802z"/>
	
		<rect x="512.211" y="903.469" transform="matrix(0.8517 0.5241 -0.5241 0.8517 585.851 -138.3096)" style="fill:#F1F3F2;" width="50.105" height="124.68"/>
	
		<rect x="592.819" y="1060.514" transform="matrix(0.8517 0.5241 -0.5241 0.8517 671.7086 -155.1222)" style="fill:#F1F3F2;" width="34.148" height="97.129"/>
	
		<rect x="424.619" y="1085.79" transform="matrix(0.8527 0.5224 -0.5224 0.8527 644.6326 -70.2241)" style="fill:#F1F3F2;" width="44.452" height="44.452"/>
	
		<rect x="539.335" y="1156.068" transform="matrix(0.8527 0.5224 -0.5224 0.8527 698.2393 -119.7994)" style="fill:#F1F3F2;" width="44.452" height="44.452"/>
	
		<rect x="481.977" y="1120.929" transform="matrix(0.8527 0.5224 -0.5224 0.8527 671.4373 -95.0116)" style="fill:#F1F3F2;" width="44.452" height="44.452"/>
	<path style="fill:#FF593A;" d="M911.809,666.949c-6.833,11.153-15.552,20.443-25.495,27.712
		c-30.894,22.584-73.604,25.648-108.258,4.418c-45.807-28.063-60.192-87.946-32.129-133.753
		c28.063-45.807,87.946-60.192,133.753-32.13c34.971,21.424,51.628,61.395,45.065,99.49
		C922.71,644.49,918.447,656.113,911.809,666.949z"/>
	<path style="fill:#9B453A;" d="M828.931,715.521c-18.234,0-36.306-5.038-51.979-14.64c-19.418-11.896-34.268-30.254-41.813-51.694
		c-0.388-1.102,0.191-2.309,1.292-2.697c1.104-0.385,2.31,0.191,2.697,1.292c7.224,20.526,21.441,38.103,40.033,49.492
		c18.591,11.39,40.711,16.071,62.273,13.185c1.157-0.159,2.222,0.658,2.376,1.815c0.155,1.158-0.658,2.222-1.815,2.376
		C837.652,715.234,833.286,715.521,828.931,715.521z"/>
	<path style="fill:#9B453A;" d="M886.738,697.033c-0.648,0-1.288-0.297-1.703-0.859c-0.694-0.94-0.494-2.264,0.445-2.957
		c9.857-7.276,18.13-16.31,24.587-26.851c6.44-10.512,10.725-21.952,12.737-34.003c0.192-1.152,1.286-1.933,2.434-1.737
		c1.152,0.192,1.93,1.282,1.737,2.434c-2.102,12.59-6.577,24.539-13.302,35.516c-6.744,11.008-15.384,20.444-25.682,28.044
		C887.614,696.898,887.174,697.033,886.738,697.033z"/>
	
		<ellipse transform="matrix(0.7071 -0.7071 0.7071 0.7071 -192.9053 766.5606)" style="fill:#F1F3F2;" cx="828.868" cy="616.138" rx="76.828" ry="76.828"/>
	<path style="fill:#FF593A;" d="M821.055,611.351l-49.284-30.192c11.9-19.425,32.113-30.642,53.243-31.873L821.055,611.351z"/>
	<path style="fill:#60BF60;" d="M885.965,651.117l-49.284-30.192l53.401-31.942C898.682,608.419,897.909,631.62,885.965,651.117z"/>
	<path style="fill:#FFB12A;" d="M885.578,580.52l-56.71,35.617l5.74-66.727c10.047,0.857,20.049,4,29.239,9.63
		C872.964,564.626,880.27,572.036,885.578,580.52z"/>
	<path style="fill:#394572;" d="M814.868,646.026c-3.492,0-6.523-2.593-6.982-6.148l-8.912-69.107
		c-0.497-3.861,2.229-7.394,6.089-7.892c3.857-0.494,7.394,2.228,7.892,6.089l8.912,69.107c0.497,3.861-2.229,7.394-6.089,7.892
		C815.472,646.006,815.168,646.026,814.868,646.026z"/>
	<path style="fill:#9B453A;" d="M812.002,765.713c-0.377,0-0.758-0.101-1.103-0.311l-105.712-64.762
		c-0.996-0.61-1.309-1.912-0.699-2.908c0.61-0.996,1.911-1.308,2.908-0.699l105.712,64.762c0.996,0.61,1.309,1.912,0.699,2.908
		C813.408,765.354,812.713,765.713,812.002,765.713z"/>
	<path style="fill:#9B453A;" d="M915.158,714.454c-0.376,0-0.758-0.101-1.102-0.312c-0.996-0.61-1.309-1.912-0.699-2.908
		l38.026-62.071c0.61-0.997,1.911-1.309,2.908-0.699c0.996,0.61,1.309,1.912,0.699,2.908l-38.026,62.071
		C916.564,714.095,915.869,714.454,915.158,714.454z"/>
	<path style="fill:#9B453A;" d="M977.325,752.566c-0.377,0-0.758-0.101-1.103-0.312c-0.996-0.61-1.309-1.912-0.699-2.908
		l38.031-62.08c0.609-0.996,1.912-1.309,2.908-0.699c0.996,0.61,1.309,1.912,0.699,2.908l-38.031,62.08
		C978.731,752.208,978.037,752.566,977.325,752.566z"/>
	<path style="fill:#305777;" d="M523.962,221.714c0,0,114.452,15.585,185.247-108.017
		C709.209,113.697,561.685,91.731,523.962,221.714z"/>
	<polygon style="fill:#F69D85;" points="818.887,390.079 662.487,308.893 632.056,444.806 763.053,500.962 	"/>
	<path style="fill:#F69D85;" d="M717.243,431.893l-24.363,49.102c-4.576,9.224-0.809,20.411,8.415,24.988l0,0
		c9.224,4.577,20.411,0.809,24.988-8.415l24.363-49.102c4.577-9.224,0.809-20.411-8.414-24.988h0
		C733.007,418.902,721.82,422.669,717.243,431.893z"/>
	<path style="fill:#F69D85;" d="M685.259,416.024l-24.363,49.102c-4.576,9.224-0.809,20.411,8.415,24.988v0
		c9.224,4.577,20.411,0.809,24.988-8.415l24.363-49.102c4.577-9.224,0.809-20.411-8.415-24.988v0
		C701.023,403.032,689.836,406.8,685.259,416.024z"/>
	<path style="fill:#F69D85;" d="M656.419,395.704l-24.363,49.102c-4.577,9.224-0.809,20.411,8.415,24.988l0,0
		c9.224,4.576,20.411,0.809,24.988-8.415l24.363-49.102c4.577-9.224,0.809-20.411-8.415-24.988h0
		C672.183,382.713,660.996,386.48,656.419,395.704z"/>
	<path style="fill:#EA8973;" d="M684.204,414.462c0.541-0.365,1.256-0.439,1.884-0.131c0.935,0.458,1.321,1.587,0.863,2.521
		l-25.555,52.16c-0.457,0.935-1.587,1.322-2.521,0.863c-0.935-0.458-1.321-1.587-0.863-2.521l25.555-52.16
		C683.717,414.888,683.94,414.64,684.204,414.462z"/>
	<path style="fill:#EA8973;" d="M717.607,431.036c0.553-0.373,1.286-0.44,1.92-0.112c0.925,0.478,1.286,1.615,0.809,2.539
		l-27.331,52.856c-0.477,0.924-1.615,1.286-2.539,0.809c-0.925-0.478-1.286-1.615-0.808-2.539l27.331-52.857
		C717.138,431.441,717.353,431.206,717.607,431.036z"/>
	<path style="fill:#F69D85;" d="M749.182,444.735l-24.363,49.102c-4.577,9.224-0.809,20.411,8.414,24.988h0
		c9.224,4.577,20.411,0.809,24.988-8.415l24.363-49.102c4.576-9.224,0.809-20.411-8.415-24.988l0,0
		C764.946,431.744,753.759,435.511,749.182,444.735z"/>
	<path style="fill:#EA8973;" d="M748.037,446.134c0.536-0.361,1.243-0.437,1.868-0.139c0.939,0.448,1.336,1.573,0.888,2.512
		l-25.5,53.375c-0.448,0.939-1.573,1.337-2.512,0.888c-0.939-0.448-1.336-1.573-0.888-2.513l25.5-53.375
		C747.542,446.569,747.768,446.316,748.037,446.134z"/>
	<path style="fill:#F69D85;" d="M832.612,470.068c-15.712-12.451-56.387-43.441-56.387-43.441l28.462-56.969
		c0,0,55.932,80.511,62.9,89.986c10.019,13.623-1.959,27.766-13.704,24.594C848.52,482.714,837.277,473.765,832.612,470.068z"/>
	<path style="fill:#EA8973;" d="M853.74,443.676c0.208-0.14,0.416-0.271,0.624-0.39c0.852-0.492,1.942-0.199,2.433,0.654
		c0.491,0.852,0.201,1.945-0.654,2.433c-1.879,1.097-6.249,5.562-3.642,10.364c2.949,5.43,15.164,20.127,15.287,20.275
		c0.63,0.756,0.527,1.879-0.23,2.509c-0.761,0.627-1.88,0.526-2.509-0.23c-0.511-0.615-12.564-15.117-15.679-20.853
		C846.083,452.386,849.874,446.283,853.74,443.676z"/>
	<path style="fill:#EA8973;" d="M805.595,412.186c0.541-0.365,1.258-0.439,1.886-0.13c0.934,0.459,1.319,1.588,0.86,2.522
		l-12.907,26.266c-0.458,0.935-1.588,1.32-2.522,0.86c-0.934-0.459-1.319-1.588-0.86-2.522l12.907-26.266
		C805.109,412.61,805.332,412.363,805.595,412.186z"/>
	<polygon style="fill:#F69D85;" points="823.88,397.25 815.93,395.95 793.39,392.27 757.01,386.33 668.54,371.88 667.47,371.71 
		667.02,370.99 653.46,349.22 543.05,222.2 533.44,211.14 529.21,206.28 452.7,118.26 575.69,0 633.6,0 687.4,112.32 690.54,118.88 
		697.2,132.79 823.87,397.23 	"/>
	<path style="fill:#3E8EDD;" d="M709.25,113.4c-0.25,0.07-0.493,0.185-0.75,0.2c-139.075,7.996-183.48,106.59-184.43,107.74
		c-0.21,0.26-0.32,0.39-0.32,0.39L297.21,0H652.3L709.25,113.4z"/>
	<polygon style="fill:#F69D85;" points="1162.161,723.349 1017.346,6.226 1276.008,20.135 1277.558,761.676 1268.032,788.12 	"/>
	<path style="fill:#3E8EDD;" d="M1348.23,0l-38.719,546.532c-97.65-54.79-210.034-6.251-210.034-6.251L977.43,0H1348.23z"/>
	<path style="fill:#305777;" d="M490.03,190.728c-0.32,0-0.645-0.077-0.946-0.24c-0.973-0.523-1.336-1.736-0.813-2.708
		c0.157-0.291,16.042-29.425,48.652-57.984c29.86-26.15,80.23-57.173,151.089-57.173c0.593,0,1.186,0.002,1.782,0.006
		c1.104,0.008,1.993,0.91,1.985,2.015c-0.008,1.1-0.902,1.985-2,1.985c-0.005,0-0.01,0-0.015,0c-0.581-0.004-1.172-0.006-1.75-0.006
		c-69.56,0-119.012,30.428-148.34,56.08c-32.112,28.087-47.727,56.688-47.881,56.974
		C491.432,190.347,490.742,190.728,490.03,190.728z"/>
	<path style="fill:#305777;" d="M1312.243,509.93c-0.418,0-0.84-0.131-1.2-0.401c-46.598-35.033-104.032-36.246-144.007-31.096
		c-43.486,5.603-76.329,19.738-76.656,19.88c-1.011,0.44-2.19-0.022-2.632-1.036c-0.441-1.013,0.022-2.191,1.035-2.632
		c0.331-0.145,33.608-14.478,77.633-20.167c40.746-5.265,99.326-4.012,147.03,31.852c0.883,0.664,1.061,1.917,0.396,2.8
		C1313.451,509.654,1312.851,509.93,1312.243,509.93z"/>
</g>
<g id="_x31_">
	<circle style="fill:#DAE5EF;" cx="1774" cy="1636" r="202"/>
	<circle style="fill:#DAE5EF;" cx="2328" cy="869" r="162"/>
	<circle style="fill:#DAE5EF;" cx="2074" cy="978" r="224"/>
	<circle style="fill:#DAE5EF;" cx="2293.5" cy="1201.5" r="283.5"/>
	<path style="fill:#FF593A;" d="M2076.358,902.128c0,0-199.353,56.863-147.143,288.31c0,0-27.498-38.624-76.662-48.391
		c0,0,48.464,109.399-27.17,216.968c-75.635,107.569,1.159,343.9,235.981,340.451c234.823-3.449,281.519-196.584,245.679-323.285
		c-35.84-126.701-132.892-227.091-181.851-291.368C2076.234,1020.536,2039.521,987.833,2076.358,902.128z"/>
	<path style="fill:#FFB12A;" d="M2052.838,1301.316c0,0,28.628,52.971-68.632,149.927c-97.26,96.957-14.025,226.059,79.963,219.238
		c97.194-7.055,180.161-67.363,106.244-234.977c0,0-12.754,74.316-76.441,81.282
		C2093.972,1516.787,2163.881,1349.306,2052.838,1301.316z"/>
	<path style="fill:#FF593A;" d="M2173.82,1015.641c-51.807-4.194-67.99-105.032,27.543-151.641c0,0-11.62,38.994,10.746,61.987
		C2250.275,965.223,2235.605,1020.643,2173.82,1015.641z"/>
	<path style="fill:#FF593A;" d="M1755.222,1306.108c51.93,2.195,80.364-95.895-8.727-153.875c0,0,6.747,40.126-18.271,60.2
		C1685.532,1246.69,1693.29,1303.49,1755.222,1306.108z"/>
	<path style="fill:#F1F3F2;" d="M2600,0v2000H549.52c50.45-59.92,126.02-98,210.48-98c5.06,0,10.08,0.15,15.07,0.42
		c-0.04-1.8-0.07-3.61-0.07-5.42c0-111.56,90.44-202,202-202c52.58,0,100.46,20.09,136.4,53.01
		c7.79-148.22,130.44-266.01,280.6-266.01c139.48,0,255.21,101.63,277.21,234.88C1682.23,1615.73,1767.92,1537,1872,1537
		c9.04,0,17.94,0.59,26.67,1.75c50.3,6.63,94.76,31.78,126.33,68.36c54.11-36.37,115.36-62.95,181.2-77.19
		c27.22-5.9,55.23-9.69,83.85-11.19c-8.47-26.9-13.05-55.53-13.05-85.23c0-5.95,0.18-11.86,0.55-17.72
		c4.19-68.06,32.42-129.61,76.28-176.3c1.33-1.43,2.68-2.84,4.04-4.23c-18.48-37.65-28.87-79.98-28.87-124.75
		c0-93.85,45.62-177.04,115.87-228.64c-36.19-26.33-65.91-61.02-86.33-101.24c-19.77,8.6-41.6,13.38-64.54,13.38
		c-89.47,0-162-72.53-162-162s72.53-162,162-162c2.21,0,4.41,0.06,6.6,0.14c-24.98-48.25-39.1-103.05-39.1-161.14
		c0-42.41,7.52-83.06,21.3-120.7C2215.84,168.42,2167,106.42,2167,33c0-11.31,1.16-22.35,3.36-33H2600z"/>
	<path style="fill:#DAE5EF;" d="M2600,1443.64V2000H1106.7c25.18-82.88,102.2-143.19,193.3-143.19c62.21,0,117.84,28.13,154.9,72.35
		c22.06-18.07,50.27-28.92,81.01-28.92c25.25,0,48.78,7.31,68.61,19.93c5.43-65.65,60.43-117.23,127.48-117.23
		c47.63,0,89.17,26.03,111.2,64.64c35.93-58.04,100.17-96.71,173.44-96.71c62.59,0,118.58,28.21,155.98,72.6
		c28.76-134.38,148.18-235.15,291.15-235.15c4.61,0,9.2,0.12,13.76,0.33c-3.55-11.74-5.46-24.19-5.46-37.08
		C2472.07,1500.91,2529.34,1443.64,2600,1443.64z"/>
</g>
</svg>
